G04 DipTrace 3.2.0.1*
G04 microburst_fixed_heatsink.GTO*
%MOIN*%
G04 #@! TF.FileFunction,Legend,Top*
G04 #@! TF.Part,Single*
%ADD10C,0.009843*%
%ADD16C,0.008*%
%ADD21C,0.006*%
%ADD22C,0.02362*%
%ADD29C,0.000013*%
%ADD30C,0.004*%
%ADD32C,0.002*%
%ADD33C,0.015403*%
%ADD36C,0.005*%
%ADD101C,0.004632*%
%ADD103C,0.006176*%
%FSLAX26Y26*%
G04*
G70*
G90*
G75*
G01*
G04 TopSilk*
%LPD*%
X1063029Y685011D2*
D10*
X1118157Y685039D1*
X1063029Y685011D2*
Y509844D1*
X1096498Y476370D2*
X1063029Y509844D1*
X1096498Y476370D2*
X1118157Y476343D1*
X1216562Y685039D2*
X1271690Y685011D1*
Y509844D1*
X1238221Y476370D2*
X1271690Y509844D1*
X1216562Y476343D2*
X1238221Y476370D1*
D22*
X1110270Y450766D3*
X538576Y3383148D2*
D10*
X538549Y3438277D1*
X538576Y3383148D2*
X713744D1*
X747218Y3416618D2*
X713744Y3383148D1*
X747218Y3416618D2*
X747245Y3438277D1*
X538549Y3536681D2*
X538576Y3591810D1*
X713744D1*
X747218Y3558340D2*
X713744Y3591810D1*
X747245Y3536681D2*
X747218Y3558340D1*
D22*
X772822Y3430389D3*
X1809190Y3771196D2*
D10*
X1754062Y3771168D1*
X1809190Y3771196D2*
Y3946363D1*
X1775721Y3979837D2*
X1809190Y3946363D1*
X1775721Y3979837D2*
X1754062Y3979865D1*
X1655657Y3771168D2*
X1600529Y3771196D1*
Y3946363D1*
X1633998Y3979837D2*
X1600529Y3946363D1*
X1655657Y3979865D2*
X1633998Y3979837D1*
D22*
X1761949Y4005442D3*
X1063029Y991261D2*
D10*
X1118157Y991289D1*
X1063029Y991261D2*
Y816093D1*
X1096498Y782620D2*
X1063029Y816093D1*
X1096498Y782620D2*
X1118157Y782592D1*
X1216562Y991289D2*
X1271690Y991261D1*
Y816093D1*
X1238221Y782620D2*
X1271690Y816093D1*
X1216562Y782592D2*
X1238221Y782620D1*
D22*
X1110270Y757015D3*
X1357446Y3068157D2*
D10*
Y3119299D1*
X1123038Y2653837D2*
X1174180D1*
X1809190Y3327447D2*
X1754062Y3327419D1*
X1809190Y3327447D2*
Y3502614D1*
X1775721Y3536088D2*
X1809190Y3502614D1*
X1775721Y3536088D2*
X1754062Y3536115D1*
X1655657Y3327419D2*
X1600529Y3327447D1*
Y3502614D1*
X1633998Y3536088D2*
X1600529Y3502614D1*
X1655657Y3536115D2*
X1633998Y3536088D1*
D22*
X1761949Y3561692D3*
X1127843Y2406228D2*
D29*
G02X1127843Y2406228I57087J0D01*
G01*
X1141622Y2443630D2*
D30*
G02X1228236Y2443630I43307J-37403D01*
G01*
X1141622Y2368827D2*
G03X1230205Y2370795I43482J37401D01*
G01*
X1121937Y2443630D2*
Y2469220D1*
X1216425D1*
X1243984Y2441661D1*
Y2370795D2*
X1216425Y2343236D1*
X1121937D1*
Y2368827D1*
X866080Y2406228D2*
D29*
G02X866080Y2406228I76772J0D01*
G01*
X1011749Y2372764D2*
D30*
G02X873954Y2372764I-68898J33465D01*
G01*
X1011749Y2439693D2*
G03X873954Y2439693I-68898J-33465D01*
G01*
X1025529Y2372764D2*
Y2323551D1*
X903482D1*
X860175Y2366858D1*
Y2445598D2*
X903482Y2488906D1*
X1025529D1*
Y2439693D1*
X978677Y2104478D2*
D29*
G02X978677Y2104478I57087J0D01*
G01*
X992457Y2141879D2*
D30*
G02X1079071Y2141879I43307J-37403D01*
G01*
X992457Y2067076D2*
G03X1081039Y2069045I43482J37401D01*
G01*
X972772Y2141879D2*
Y2167470D1*
X1067260D1*
X1094819Y2139911D1*
Y2069045D2*
X1067260Y2041486D1*
X972772D1*
Y2067076D1*
X1740588Y2925471D2*
D29*
G02X1740588Y2925471I76772J0D01*
G01*
X1850824Y2994369D2*
D30*
G02X1850824Y2856573I-33465J-68898D01*
G01*
X1783895Y2994369D2*
G03X1783895Y2856573I33465J-68898D01*
G01*
X1850824Y3008148D2*
X1900037D1*
Y2886101D1*
X1856730Y2842794D1*
X1777990D2*
X1734682Y2886101D1*
Y3008148D1*
X1783895D1*
X1622769Y2223843D2*
D29*
G02X1622769Y2223843I57087J0D01*
G01*
X1642454Y2180535D2*
D30*
G02X1642454Y2267150I37403J43307D01*
G01*
X1717257Y2180535D2*
G03X1715289Y2269118I-37401J43482D01*
G01*
X1642454Y2160850D2*
X1616864D1*
Y2255339D1*
X1644423Y2282898D1*
X1715289D2*
X1742848Y2255339D1*
Y2160850D1*
X1717257D1*
X1259898Y2104478D2*
D29*
G02X1259898Y2104478I57087J0D01*
G01*
X1360291Y2067076D2*
D30*
G02X1273677Y2067076I-43307J37403D01*
G01*
X1360291Y2141879D2*
G03X1271709Y2139911I-43482J-37401D01*
G01*
X1379976Y2067076D2*
Y2041486D1*
X1285488D1*
X1257929Y2069045D1*
Y2139911D2*
X1285488Y2167470D1*
X1379976D1*
Y2141879D1*
X1459143Y1843730D2*
D29*
G02X1459143Y1843730I57087J0D01*
G01*
X1472923Y1881131D2*
D30*
G02X1559537Y1881131I43307J-37403D01*
G01*
X1472923Y1806328D2*
G03X1561505Y1808297I43482J37401D01*
G01*
X1453238Y1881131D2*
Y1906722D1*
X1547726D1*
X1575285Y1879163D1*
Y1808297D2*
X1547726Y1780738D1*
X1453238D1*
Y1806328D1*
X1771587Y2199979D2*
D29*
G02X1771587Y2199979I57087J0D01*
G01*
X1791272Y2156672D2*
D30*
G02X1791272Y2243286I37403J43307D01*
G01*
X1866075Y2156672D2*
G03X1864106Y2245255I-37401J43482D01*
G01*
X1791272Y2136987D2*
X1765681D1*
Y2231475D1*
X1793240Y2259034D1*
X1864106D2*
X1891665Y2231475D1*
Y2136987D1*
X1866075D1*
X747383Y4542501D2*
D10*
X562336D1*
Y4434222D1*
Y4432260D2*
X747383D1*
Y4471623D1*
Y4542501D2*
Y4503138D1*
G03X747383Y4471623I-1844J-15758D01*
G01*
X1284109Y3468978D2*
D21*
G03X1299109Y3453978I14999J-1D01*
G01*
X1423109Y3853978D2*
G02X1438109Y3838978I1J-14999D01*
G01*
Y3468978D2*
G02X1423109Y3453978I-15001J1D01*
G01*
X1299109Y3853978D2*
G03X1284109Y3838978I1J-15001D01*
G01*
X1299109Y3453978D2*
X1423109D1*
Y3853978D2*
X1381109D1*
X1341109D1*
X1299109D1*
X1381109D2*
G02X1341109Y3853978I-20000J0D01*
G01*
X1298109D2*
D32*
Y3453978D1*
D33*
X522484Y3713454D3*
X521445Y3802704D2*
D10*
X781275D1*
X521445Y3912939D2*
X781275D1*
Y3802704D2*
Y3912939D1*
X521445Y3802704D2*
Y3912939D1*
X889434Y3118591D2*
D29*
G02X889434Y3118591I14142J0D01*
G01*
X1260427Y3155441D2*
D36*
X866726D1*
Y2761740D1*
X1260427D1*
Y3155441D1*
X1819677Y4401409D2*
D21*
Y4537630D1*
X1573693D2*
Y4401409D1*
X1819677D2*
X1573693D1*
Y4537630D2*
X1819677D1*
X1496537Y2548202D2*
D29*
G02X1496537Y2548202I21000J0D01*
G01*
X1480529Y2509958D2*
D21*
X1862852D1*
Y2710446D1*
X1480529D1*
Y2509958D1*
X1392360Y3374980D2*
X1379860Y3387480D1*
X1354860D2*
X1342360Y3374980D1*
X1329860Y3387480D1*
X1304860D2*
X1292360Y3374980D1*
X1279860Y3387480D1*
X1254860D2*
X1242360Y3374980D1*
X1229860Y3387480D1*
X1204860D2*
X1192360Y3374980D1*
X1392360D2*
Y3299980D1*
X1379860Y3287480D1*
X1354860D1*
X1342360Y3299980D1*
X1329860Y3287480D1*
X1304860D1*
X1292360Y3299980D1*
X1279860Y3287480D1*
X1254860D1*
X1242360Y3299980D1*
X1229860Y3287480D1*
X1204860D1*
X1192360Y3299980D1*
X1342360D2*
Y3374980D1*
X1292360Y3299980D2*
Y3374980D1*
X1242360Y3299980D2*
Y3374980D1*
X1192360Y3299980D2*
Y3374980D1*
X1229860Y3387480D2*
X1204860D1*
X1279860D2*
X1254860D1*
X1329860D2*
X1304860D1*
X1379860D2*
X1354860D1*
X1192360Y3374980D2*
X1179860Y3387480D1*
X1154860D2*
X1142360Y3374980D1*
X1192360Y3299980D2*
X1179860Y3287480D1*
X1154860D1*
X1142360Y3299980D1*
Y3374980D1*
X1179860Y3387480D2*
X1154860D1*
X1379860Y3399980D2*
D16*
X1354860D1*
G36*
X1144860Y4447478D2*
X1164875D1*
Y4427493D1*
X1144860D1*
Y4447478D1*
G37*
X904860Y4412478D2*
D21*
X929860Y4387478D1*
X979860D2*
X1004860Y4412478D1*
X1029860Y4387478D1*
X1079860D2*
X1104860Y4412478D1*
X1129860Y4387478D1*
X1179860D2*
X1204860Y4412478D1*
X1229860Y4387478D1*
X1279860D2*
X1304860Y4412478D1*
X904860D2*
Y4562478D1*
X929860Y4587478D1*
X979860D1*
X1004860Y4562478D1*
X1029860Y4587478D1*
X1079860D1*
X1104860Y4562478D1*
X1129860Y4587478D1*
X1179860D1*
X1204860Y4562478D1*
X1229860Y4587478D1*
X1279860D1*
X1304860Y4562478D1*
X1004860D2*
Y4412478D1*
X1104860Y4562478D2*
Y4412478D1*
X1204860Y4562478D2*
Y4412478D1*
X1304860Y4562478D2*
Y4412478D1*
X1229860Y4387478D2*
X1279860D1*
X1129860D2*
X1179860D1*
X1029860D2*
X1079860D1*
X929860D2*
X979860D1*
X1304860Y4412478D2*
X1329860Y4387478D1*
X1379860D2*
X1404860Y4412478D1*
X1304860Y4562478D2*
X1329860Y4587478D1*
X1379860D1*
X1404860Y4562478D1*
Y4412478D1*
X1329860Y4387478D2*
X1379860D1*
X929860Y4362478D2*
D16*
X979860D1*
X739849Y2947925D2*
D10*
X582369D1*
X739849Y3026660D2*
X582369D1*
X711109Y3006039D2*
X611109D1*
Y2968546D1*
X711109D1*
Y3006039D2*
Y2968546D1*
X1515306Y2833739D2*
Y2991219D1*
X1594041Y2833739D2*
Y2991219D1*
X1573420Y2862479D2*
Y2962479D1*
X1535927D1*
Y2862479D1*
X1573420D2*
X1535927D1*
X654554Y1467887D2*
D21*
X829535D1*
Y1330402D1*
X654554D1*
Y1467887D1*
X1035764D2*
X1210745D1*
Y1330402D1*
X1035764D1*
Y1467887D1*
X1423223D2*
X1598205D1*
Y1330402D1*
X1423223D1*
Y1467887D1*
X723297Y917945D2*
X904528D1*
Y774210D1*
X723297D1*
Y917945D1*
X1504465Y911696D2*
X1685696D1*
Y774210D1*
X1504465D1*
Y911696D1*
X785790Y1430391D2*
G02X785790Y1430391I18748J0D01*
G01*
X1160751D2*
G02X1160751Y1430391I18748J0D01*
G01*
X1554459D2*
G02X1554459Y1430391I18748J0D01*
G01*
X1635701Y867950D2*
G02X1635701Y867950I18748J0D01*
G01*
X854533Y874199D2*
G02X854533Y874199I18748J0D01*
G01*
X423328Y1880344D2*
X523318D1*
Y1836598D1*
X423328D1*
Y1880344D1*
X685801Y1874094D2*
X785790D1*
Y1830349D1*
X685801D1*
Y1874094D1*
X1804433Y1411643D2*
X1904423D1*
Y1367898D1*
X1804433D1*
Y1411643D1*
X1244883Y453317D2*
D101*
X1243457Y456169D1*
X1240572Y459054D1*
X1237720Y460480D1*
X1231983D1*
X1229098Y459054D1*
X1226246Y456169D1*
X1224787Y453317D1*
X1223361Y449006D1*
Y441810D1*
X1224787Y437532D1*
X1226246Y434647D1*
X1229098Y431795D1*
X1231983Y430336D1*
X1237720D1*
X1240572Y431795D1*
X1243457Y434647D1*
X1244883Y437532D1*
X1254146Y454710D2*
X1257031Y456169D1*
X1261343Y460447D1*
Y430336D1*
X641934Y3628581D2*
X640508Y3631433D1*
X637623Y3634318D1*
X634771Y3635744D1*
X629034D1*
X626149Y3634318D1*
X623297Y3631433D1*
X621838Y3628581D1*
X620412Y3624270D1*
Y3617074D1*
X621838Y3612796D1*
X623297Y3609911D1*
X626149Y3607059D1*
X629034Y3605600D1*
X634771D1*
X637623Y3607059D1*
X640508Y3609911D1*
X641934Y3612796D1*
X652657Y3628547D2*
Y3629973D1*
X654083Y3632858D1*
X655509Y3634284D1*
X658394Y3635710D1*
X664131D1*
X666983Y3634284D1*
X668409Y3632858D1*
X669868Y3629973D1*
Y3627122D1*
X668409Y3624236D1*
X665557Y3619959D1*
X651198Y3605600D1*
X671294D1*
X910904Y4093845D2*
X908052Y4092419D1*
X905167Y4089534D1*
X903741Y4086682D1*
Y4080945D1*
X905167Y4078060D1*
X908052Y4075208D1*
X910904Y4073749D1*
X915215Y4072323D1*
X922411D1*
X926689Y4073749D1*
X929574Y4075208D1*
X932426Y4078060D1*
X933885Y4080945D1*
Y4086682D1*
X932426Y4089534D1*
X929574Y4092419D1*
X926689Y4093845D1*
X903774Y4105994D2*
Y4121745D1*
X915248Y4113157D1*
Y4117468D1*
X916674Y4120319D1*
X918100Y4121745D1*
X922411Y4123205D1*
X925263D1*
X929574Y4121745D1*
X932459Y4118894D1*
X933885Y4114582D1*
Y4110271D1*
X932459Y4105994D1*
X931000Y4104568D1*
X928148Y4103109D1*
X1700228Y4054023D2*
X1698802Y4056875D1*
X1695917Y4059760D1*
X1693065Y4061186D1*
X1687328D1*
X1684443Y4059760D1*
X1681591Y4056875D1*
X1680132Y4054023D1*
X1678706Y4049712D1*
Y4042516D1*
X1680132Y4038238D1*
X1681591Y4035353D1*
X1684443Y4032501D1*
X1687328Y4031042D1*
X1693065D1*
X1695917Y4032501D1*
X1698802Y4035353D1*
X1700228Y4038238D1*
X1723850Y4031042D2*
Y4061153D1*
X1709491Y4041090D1*
X1731013D1*
X1298404Y3948274D2*
X1295552Y3946848D1*
X1292667Y3943963D1*
X1291241Y3941111D1*
Y3935374D1*
X1292667Y3932489D1*
X1295552Y3929637D1*
X1298404Y3928178D1*
X1302715Y3926752D1*
X1309911D1*
X1314189Y3928178D1*
X1317074Y3929637D1*
X1319926Y3932489D1*
X1321385Y3935374D1*
Y3941111D1*
X1319926Y3943963D1*
X1317074Y3946848D1*
X1314189Y3948274D1*
X1291274Y3974749D2*
Y3960423D1*
X1304174Y3958997D1*
X1302748Y3960423D1*
X1301289Y3964734D1*
Y3969012D1*
X1302748Y3973323D1*
X1305600Y3976208D1*
X1309911Y3977634D1*
X1312763D1*
X1317074Y3976208D1*
X1319959Y3973323D1*
X1321385Y3969012D1*
Y3964734D1*
X1319959Y3960423D1*
X1318500Y3958997D1*
X1315648Y3957538D1*
X492153Y2938325D2*
X489301Y2936899D1*
X486416Y2934014D1*
X484990Y2931162D1*
Y2925425D1*
X486416Y2922540D1*
X489301Y2919688D1*
X492153Y2918229D1*
X496464Y2916803D1*
X503660D1*
X507938Y2918229D1*
X510823Y2919688D1*
X513675Y2922540D1*
X515134Y2925425D1*
Y2931162D1*
X513675Y2934014D1*
X510823Y2936899D1*
X507938Y2938325D1*
X489301Y2964800D2*
X486449Y2963374D1*
X485023Y2959063D1*
Y2956211D1*
X486449Y2951900D1*
X490760Y2949015D1*
X497923Y2947589D1*
X505086D1*
X510823Y2949015D1*
X513708Y2951900D1*
X515134Y2956211D1*
Y2957637D1*
X513708Y2961915D1*
X510823Y2964800D1*
X506512Y2966226D1*
X505086D1*
X500775Y2964800D1*
X497923Y2961915D1*
X496497Y2957637D1*
Y2956211D1*
X497923Y2951900D1*
X500775Y2949015D1*
X505086Y2947589D1*
X498404Y3085776D2*
X495552Y3084350D1*
X492667Y3081465D1*
X491241Y3078613D1*
Y3072876D1*
X492667Y3069991D1*
X495552Y3067139D1*
X498404Y3065680D1*
X502715Y3064254D1*
X509911D1*
X514189Y3065680D1*
X517074Y3067139D1*
X519926Y3069991D1*
X521385Y3072876D1*
Y3078613D1*
X519926Y3081464D1*
X517074Y3084350D1*
X514189Y3085775D1*
X521385Y3100776D2*
X491274Y3115135D1*
Y3095039D1*
X873404Y3348292D2*
X870552Y3346866D1*
X867667Y3343981D1*
X866241Y3341129D1*
Y3335392D1*
X867667Y3332507D1*
X870552Y3329655D1*
X873404Y3328196D1*
X877715Y3326770D1*
X884911D1*
X889189Y3328196D1*
X892074Y3329655D1*
X894926Y3332507D1*
X896385Y3335392D1*
Y3341129D1*
X894926Y3343981D1*
X892074Y3346866D1*
X889189Y3348292D1*
X866274Y3364719D2*
X867700Y3360441D1*
X870552Y3358982D1*
X873437D1*
X876289Y3360441D1*
X877748Y3363293D1*
X879174Y3369030D1*
X880600Y3373341D1*
X883485Y3376192D1*
X886337Y3377618D1*
X890648D1*
X893500Y3376192D1*
X894959Y3374766D1*
X896385Y3370455D1*
Y3364719D1*
X894959Y3360441D1*
X893500Y3358982D1*
X890648Y3357556D1*
X886337D1*
X883485Y3358982D1*
X880600Y3361867D1*
X879174Y3366144D1*
X877748Y3371881D1*
X876289Y3374767D1*
X873437Y3376192D1*
X870552D1*
X867700Y3374767D1*
X866274Y3370456D1*
Y3364719D1*
X585904Y1123987D2*
X583052Y1122561D1*
X580167Y1119676D1*
X578741Y1116824D1*
Y1111087D1*
X580167Y1108202D1*
X583052Y1105350D1*
X585904Y1103891D1*
X590215Y1102465D1*
X597411D1*
X601689Y1103891D1*
X604574Y1105350D1*
X607426Y1108202D1*
X608885Y1111087D1*
Y1116824D1*
X607426Y1119676D1*
X604574Y1122561D1*
X601689Y1123987D1*
X588789Y1151921D2*
X593100Y1150462D1*
X595985Y1147610D1*
X597411Y1143299D1*
Y1141873D1*
X595985Y1137562D1*
X593100Y1134710D1*
X588789Y1133251D1*
X587363D1*
X583052Y1134710D1*
X580200Y1137562D1*
X578774Y1141873D1*
Y1143299D1*
X580200Y1147610D1*
X583052Y1150462D1*
X588789Y1151921D1*
X595985D1*
X603148Y1150462D1*
X607459Y1147610D1*
X608885Y1143299D1*
Y1140447D1*
X607459Y1136136D1*
X604574Y1134710D1*
X735904Y1640044D2*
X733052Y1638618D1*
X730167Y1635733D1*
X728741Y1632881D1*
Y1627145D1*
X730167Y1624259D1*
X733052Y1621408D1*
X735904Y1619948D1*
X740215Y1618522D1*
X747411D1*
X751689Y1619948D1*
X754574Y1621408D1*
X757426Y1624259D1*
X758885Y1627144D1*
Y1632881D1*
X757426Y1635733D1*
X754574Y1638618D1*
X751689Y1640044D1*
X734511Y1649308D2*
X733052Y1652193D1*
X728774Y1656504D1*
X758885D1*
X728774Y1674390D2*
X730200Y1670079D1*
X734511Y1667193D1*
X741674Y1665768D1*
X745985D1*
X753148Y1667193D1*
X757459Y1670079D1*
X758885Y1674390D1*
Y1677241D1*
X757459Y1681552D1*
X753148Y1684404D1*
X745985Y1685864D1*
X741674D1*
X734511Y1684404D1*
X730200Y1681553D1*
X728774Y1677241D1*
Y1674390D1*
X734511Y1684404D2*
X753148Y1667193D1*
X1035904Y1121494D2*
X1033052Y1120068D1*
X1030167Y1117183D1*
X1028741Y1114331D1*
Y1108594D1*
X1030167Y1105709D1*
X1033052Y1102857D1*
X1035904Y1101398D1*
X1040215Y1099972D1*
X1047411D1*
X1051689Y1101398D1*
X1054574Y1102857D1*
X1057426Y1105709D1*
X1058885Y1108594D1*
Y1114331D1*
X1057426Y1117183D1*
X1054574Y1120068D1*
X1051689Y1121494D1*
X1034511Y1130758D2*
X1033052Y1133643D1*
X1028774Y1137954D1*
X1058885D1*
X1034511Y1147217D2*
X1033052Y1150103D1*
X1028774Y1154414D1*
X1058885D1*
X1642148Y1408783D2*
X1639296Y1407357D1*
X1636411Y1404472D1*
X1634985Y1401620D1*
Y1395883D1*
X1636411Y1392998D1*
X1639296Y1390146D1*
X1642148Y1388687D1*
X1646459Y1387261D1*
X1653655D1*
X1657933Y1388687D1*
X1660818Y1390146D1*
X1663670Y1392998D1*
X1665129Y1395883D1*
Y1401620D1*
X1663670Y1404472D1*
X1660818Y1407357D1*
X1657933Y1408783D1*
X1640755Y1418047D2*
X1639296Y1420932D1*
X1635018Y1425243D1*
X1665129D1*
X1642181Y1435965D2*
X1640755D1*
X1637870Y1437391D1*
X1636444Y1438817D1*
X1635018Y1441702D1*
Y1447439D1*
X1636444Y1450291D1*
X1637870Y1451717D1*
X1640755Y1453176D1*
X1643607D1*
X1646492Y1451717D1*
X1650770Y1448865D1*
X1665129Y1434506D1*
Y1454602D1*
X1155211Y1059535D2*
X1153785Y1062387D1*
X1150900Y1065272D1*
X1148048Y1066698D1*
X1142311D1*
X1139426Y1065272D1*
X1136574Y1062387D1*
X1135115Y1059535D1*
X1133689Y1055224D1*
Y1048028D1*
X1135115Y1043750D1*
X1136574Y1040865D1*
X1139426Y1038013D1*
X1142311Y1036554D1*
X1148048D1*
X1150900Y1038013D1*
X1153785Y1040865D1*
X1155211Y1043750D1*
X1164475Y1060927D2*
X1167360Y1062387D1*
X1171671Y1066664D1*
Y1036554D1*
X1183819Y1066664D2*
X1199571D1*
X1190982Y1055191D1*
X1195293D1*
X1198145Y1053765D1*
X1199571Y1052339D1*
X1201030Y1048028D1*
Y1045176D1*
X1199571Y1040865D1*
X1196719Y1037980D1*
X1192408Y1036554D1*
X1188097D1*
X1183819Y1037980D1*
X1182393Y1039439D1*
X1180934Y1042291D1*
X1612963Y4150184D2*
X1611537Y4153036D1*
X1608652Y4155921D1*
X1605800Y4157347D1*
X1600063D1*
X1597178Y4155921D1*
X1594326Y4153036D1*
X1592867Y4150184D1*
X1591441Y4145873D1*
Y4138677D1*
X1592867Y4134399D1*
X1594326Y4131514D1*
X1597178Y4128662D1*
X1600063Y4127203D1*
X1605800D1*
X1608652Y4128662D1*
X1611537Y4131514D1*
X1612963Y4134399D1*
X1622226Y4151577D2*
X1625111Y4153036D1*
X1629422Y4157314D1*
Y4127203D1*
X1653045D2*
Y4157314D1*
X1638686Y4137251D1*
X1660208D1*
X685904Y2735615D2*
X683052Y2734189D1*
X680167Y2731304D1*
X678741Y2728452D1*
Y2722715D1*
X680167Y2719830D1*
X683052Y2716978D1*
X685904Y2715519D1*
X690215Y2714093D1*
X697411D1*
X701689Y2715519D1*
X704574Y2716978D1*
X707426Y2719830D1*
X708885Y2722715D1*
Y2728452D1*
X707426Y2731304D1*
X704574Y2734189D1*
X701689Y2735615D1*
X684511Y2744879D2*
X683052Y2747764D1*
X678774Y2752075D1*
X708885D1*
X678774Y2778549D2*
Y2764223D1*
X691674Y2762798D1*
X690248Y2764223D1*
X688789Y2768534D1*
Y2772812D1*
X690248Y2777123D1*
X693100Y2780008D1*
X697411Y2781434D1*
X700263D1*
X704574Y2780008D1*
X707459Y2777123D1*
X708885Y2772812D1*
Y2768534D1*
X707459Y2764223D1*
X706000Y2762797D1*
X703148Y2761338D1*
X1748404Y1148841D2*
X1745552Y1147415D1*
X1742667Y1144530D1*
X1741241Y1141678D1*
Y1135941D1*
X1742667Y1133056D1*
X1745552Y1130204D1*
X1748404Y1128745D1*
X1752715Y1127319D1*
X1759911D1*
X1764189Y1128745D1*
X1767074Y1130204D1*
X1769926Y1133056D1*
X1771385Y1135941D1*
Y1141678D1*
X1769926Y1144530D1*
X1767074Y1147415D1*
X1764189Y1148841D1*
X1747011Y1158104D2*
X1745552Y1160989D1*
X1741274Y1165300D1*
X1771385D1*
X1745552Y1191775D2*
X1742700Y1190349D1*
X1741274Y1186038D1*
Y1183186D1*
X1742700Y1178875D1*
X1747011Y1175990D1*
X1754174Y1174564D1*
X1761337D1*
X1767074Y1175990D1*
X1769959Y1178875D1*
X1771385Y1183186D1*
Y1184612D1*
X1769959Y1188890D1*
X1767074Y1191775D1*
X1762763Y1193201D1*
X1761337D1*
X1757026Y1191775D1*
X1754174Y1188890D1*
X1752748Y1184612D1*
Y1183186D1*
X1754174Y1178875D1*
X1757026Y1175990D1*
X1761337Y1174564D1*
X926176Y2668935D2*
X924750Y2671787D1*
X921865Y2674672D1*
X919013Y2676098D1*
X913276D1*
X910391Y2674672D1*
X907539Y2671787D1*
X906080Y2668935D1*
X904654Y2664624D1*
Y2657428D1*
X906080Y2653150D1*
X907539Y2650265D1*
X910391Y2647413D1*
X913276Y2645954D1*
X919013D1*
X921865Y2647413D1*
X924750Y2650265D1*
X926176Y2653150D1*
X935439Y2670328D2*
X938324Y2671787D1*
X942635Y2676065D1*
Y2645954D1*
X957636D2*
X971995Y2676065D1*
X951899D1*
X1419941Y3212684D2*
X1418516Y3215536D1*
X1415630Y3218421D1*
X1412779Y3219847D1*
X1407042D1*
X1404156Y3218421D1*
X1401305Y3215536D1*
X1399845Y3212684D1*
X1398419Y3208373D1*
Y3201177D1*
X1399845Y3196899D1*
X1401305Y3194014D1*
X1404156Y3191162D1*
X1407042Y3189703D1*
X1412779D1*
X1415630Y3191162D1*
X1418516Y3194014D1*
X1419941Y3196899D1*
X1429205Y3214077D2*
X1432090Y3215536D1*
X1436401Y3219814D1*
Y3189703D1*
X1452828Y3219814D2*
X1448550Y3218388D1*
X1447091Y3215536D1*
Y3212651D1*
X1448550Y3209799D1*
X1451402Y3208340D1*
X1457139Y3206914D1*
X1461450Y3205488D1*
X1464302Y3202603D1*
X1465727Y3199751D1*
Y3195440D1*
X1464302Y3192588D1*
X1462876Y3191129D1*
X1458565Y3189703D1*
X1452828D1*
X1448550Y3191129D1*
X1447091Y3192588D1*
X1445665Y3195440D1*
Y3199751D1*
X1447091Y3202603D1*
X1449976Y3205488D1*
X1454254Y3206914D1*
X1459991Y3208340D1*
X1462876Y3209799D1*
X1464302Y3212651D1*
Y3215536D1*
X1462876Y3218388D1*
X1458565Y3219814D1*
X1452828D1*
X1516552Y3086820D2*
X1513700Y3085394D1*
X1510815Y3082509D1*
X1509389Y3079657D1*
Y3073920D1*
X1510815Y3071035D1*
X1513700Y3068184D1*
X1516552Y3066724D1*
X1520863Y3065298D1*
X1528059D1*
X1532337Y3066724D1*
X1535222Y3068184D1*
X1538074Y3071035D1*
X1539533Y3073920D1*
Y3079657D1*
X1538074Y3082509D1*
X1535222Y3085394D1*
X1532337Y3086820D1*
X1515159Y3096084D2*
X1513700Y3098969D1*
X1509422Y3103280D1*
X1539533D1*
X1519437Y3131214D2*
X1523748Y3129754D1*
X1526633Y3126902D1*
X1528059Y3122591D1*
Y3121166D1*
X1526633Y3116855D1*
X1523748Y3114003D1*
X1519437Y3112543D1*
X1518011D1*
X1513700Y3114003D1*
X1510848Y3116855D1*
X1509422Y3121166D1*
Y3122592D1*
X1510848Y3126903D1*
X1513700Y3129754D1*
X1519437Y3131214D1*
X1526633D1*
X1533796Y3129754D1*
X1538107Y3126902D1*
X1539533Y3122591D1*
Y3119740D1*
X1538107Y3115429D1*
X1535222Y3114003D1*
X1466575Y1751464D2*
X1465149Y1754316D1*
X1462264Y1757201D1*
X1459412Y1758627D1*
X1453675D1*
X1450790Y1757201D1*
X1447938Y1754316D1*
X1446479Y1751464D1*
X1445053Y1747153D1*
Y1739957D1*
X1446479Y1735679D1*
X1447938Y1732794D1*
X1450790Y1729942D1*
X1453675Y1728483D1*
X1459412D1*
X1462264Y1729942D1*
X1465149Y1732794D1*
X1466575Y1735679D1*
X1477297Y1751431D2*
Y1752857D1*
X1478723Y1755742D1*
X1480149Y1757168D1*
X1483034Y1758594D1*
X1488771D1*
X1491623Y1757168D1*
X1493049Y1755742D1*
X1494508Y1752857D1*
Y1750005D1*
X1493049Y1747120D1*
X1490197Y1742842D1*
X1475838Y1728483D1*
X1495934D1*
X1513820Y1758594D2*
X1509509Y1757168D1*
X1506624Y1752857D1*
X1505198Y1745694D1*
Y1741383D1*
X1506624Y1734220D1*
X1509509Y1729909D1*
X1513820Y1728483D1*
X1516672D1*
X1520983Y1729909D1*
X1523835Y1734220D1*
X1525294Y1741383D1*
Y1745694D1*
X1523835Y1752857D1*
X1520983Y1757168D1*
X1516672Y1758594D1*
X1513820D1*
X1523835Y1752857D2*
X1506624Y1734220D1*
X1454653Y1115044D2*
X1451801Y1113618D1*
X1448916Y1110733D1*
X1447490Y1107881D1*
Y1102145D1*
X1448916Y1099259D1*
X1451801Y1096408D1*
X1454653Y1094948D1*
X1458964Y1093522D1*
X1466160D1*
X1470438Y1094948D1*
X1473323Y1096408D1*
X1476175Y1099259D1*
X1477634Y1102144D1*
Y1107881D1*
X1476175Y1110733D1*
X1473323Y1113618D1*
X1470438Y1115044D1*
X1454686Y1125767D2*
X1453260D1*
X1450375Y1127193D1*
X1448949Y1128619D1*
X1447523Y1131504D1*
Y1137241D1*
X1448949Y1140093D1*
X1450375Y1141519D1*
X1453260Y1142978D1*
X1456112D1*
X1458997Y1141519D1*
X1463275Y1138667D1*
X1477634Y1124308D1*
Y1144404D1*
X1453260Y1153667D2*
X1451801Y1156552D1*
X1447523Y1160864D1*
X1477634Y1160863D1*
X1054076Y1745213D2*
X1052650Y1748065D1*
X1049765Y1750950D1*
X1046913Y1752376D1*
X1041176D1*
X1038291Y1750950D1*
X1035439Y1748065D1*
X1033980Y1745213D1*
X1032554Y1740902D1*
Y1733706D1*
X1033980Y1729428D1*
X1035439Y1726543D1*
X1038291Y1723691D1*
X1041176Y1722232D1*
X1046913D1*
X1049765Y1723691D1*
X1052650Y1726543D1*
X1054076Y1729428D1*
X1064799Y1745180D2*
Y1746606D1*
X1066225Y1749491D1*
X1067651Y1750917D1*
X1070536Y1752343D1*
X1076273D1*
X1079124Y1750917D1*
X1080550Y1749491D1*
X1082010Y1746606D1*
Y1743754D1*
X1080550Y1740869D1*
X1077699Y1736591D1*
X1063340Y1722232D1*
X1083436D1*
X1094158Y1745180D2*
Y1746606D1*
X1095584Y1749491D1*
X1097010Y1750917D1*
X1099895Y1752343D1*
X1105632D1*
X1108484Y1750917D1*
X1109910Y1749491D1*
X1111369Y1746606D1*
Y1743754D1*
X1109910Y1740869D1*
X1107058Y1736591D1*
X1092699Y1722232D1*
X1112795D1*
X1267149Y1408581D2*
X1264297Y1407155D1*
X1261412Y1404270D1*
X1259986Y1401418D1*
Y1395681D1*
X1261412Y1392796D1*
X1264297Y1389944D1*
X1267149Y1388485D1*
X1271460Y1387059D1*
X1278656D1*
X1282934Y1388485D1*
X1285819Y1389944D1*
X1288671Y1392796D1*
X1290130Y1395681D1*
Y1401418D1*
X1288671Y1404270D1*
X1285819Y1407155D1*
X1282934Y1408581D1*
X1267182Y1419304D2*
X1265756D1*
X1262871Y1420730D1*
X1261445Y1422156D1*
X1260019Y1425041D1*
Y1430778D1*
X1261445Y1433630D1*
X1262871Y1435056D1*
X1265756Y1436515D1*
X1268608D1*
X1271493Y1435056D1*
X1275771Y1432204D1*
X1290130Y1417845D1*
Y1437941D1*
X1260019Y1450089D2*
Y1465841D1*
X1271493Y1457252D1*
Y1461563D1*
X1272919Y1464415D1*
X1274345Y1465841D1*
X1278656Y1467300D1*
X1281508D1*
X1285819Y1465841D1*
X1288704Y1462989D1*
X1290130Y1458678D1*
Y1454367D1*
X1288704Y1450089D1*
X1287245Y1448663D1*
X1284393Y1447204D1*
X1082311Y2563649D2*
X1079459Y2562223D1*
X1076574Y2559338D1*
X1075148Y2556486D1*
Y2550749D1*
X1076573Y2547864D1*
X1079459Y2545012D1*
X1082310Y2543553D1*
X1086621Y2542127D1*
X1093818D1*
X1098095Y2543553D1*
X1100981Y2545012D1*
X1103832Y2547864D1*
X1105292Y2550749D1*
Y2556486D1*
X1103832Y2559338D1*
X1100981Y2562223D1*
X1098095Y2563649D1*
X1082344Y2574372D2*
X1080918D1*
X1078033Y2575798D1*
X1076607Y2577224D1*
X1075181Y2580109D1*
Y2585846D1*
X1076607Y2588698D1*
X1078033Y2590124D1*
X1080918Y2591583D1*
X1083770D1*
X1086655Y2590124D1*
X1090933Y2587272D1*
X1105292Y2572913D1*
Y2593009D1*
Y2616631D2*
X1075181D1*
X1095244Y2602272D1*
Y2623794D1*
X1313475Y2762684D2*
X1312049Y2765536D1*
X1309164Y2768421D1*
X1306312Y2769847D1*
X1300575D1*
X1297690Y2768421D1*
X1294838Y2765536D1*
X1293379Y2762684D1*
X1291953Y2758373D1*
Y2751177D1*
X1293379Y2746899D1*
X1294838Y2744014D1*
X1297690Y2741162D1*
X1300575Y2739703D1*
X1306312D1*
X1309164Y2741162D1*
X1312049Y2744014D1*
X1313475Y2746899D1*
X1324198Y2762651D2*
Y2764077D1*
X1325624Y2766962D1*
X1327049Y2768388D1*
X1329935Y2769814D1*
X1335672D1*
X1338523Y2768388D1*
X1339949Y2766962D1*
X1341409Y2764077D1*
Y2761225D1*
X1339949Y2758340D1*
X1337097Y2754062D1*
X1322738Y2739703D1*
X1342834D1*
X1369309Y2769814D2*
X1354983D1*
X1353557Y2756914D1*
X1354983Y2758340D1*
X1359294Y2759799D1*
X1363572D1*
X1367883Y2758340D1*
X1370768Y2755488D1*
X1372194Y2751177D1*
Y2748325D1*
X1370768Y2744014D1*
X1367883Y2741129D1*
X1363572Y2739703D1*
X1359294D1*
X1354983Y2741129D1*
X1353557Y2742588D1*
X1352098Y2745440D1*
X1227605Y2324249D2*
X1226179Y2327101D1*
X1223294Y2329986D1*
X1220442Y2331412D1*
X1214705D1*
X1211820Y2329986D1*
X1208968Y2327101D1*
X1207509Y2324249D1*
X1206083Y2319938D1*
Y2312741D1*
X1207509Y2308464D1*
X1208968Y2305579D1*
X1211820Y2302727D1*
X1214705Y2301268D1*
X1220442D1*
X1223294Y2302727D1*
X1226179Y2305579D1*
X1227605Y2308464D1*
X1238327Y2324215D2*
Y2325641D1*
X1239753Y2328526D1*
X1241179Y2329952D1*
X1244064Y2331378D1*
X1249801D1*
X1252653Y2329952D1*
X1254079Y2328526D1*
X1255538Y2325641D1*
Y2322789D1*
X1254079Y2319904D1*
X1251227Y2315627D1*
X1236868Y2301268D1*
X1256964D1*
X1283439Y2327101D2*
X1282013Y2329952D1*
X1277702Y2331378D1*
X1274850D1*
X1270539Y2329952D1*
X1267654Y2325641D1*
X1266228Y2318478D1*
Y2311316D1*
X1267654Y2305579D1*
X1270539Y2302693D1*
X1274850Y2301268D1*
X1276276D1*
X1280554Y2302693D1*
X1283439Y2305579D1*
X1284865Y2309890D1*
Y2311316D1*
X1283439Y2315627D1*
X1280554Y2318478D1*
X1276276Y2319904D1*
X1274850D1*
X1270539Y2318478D1*
X1267654Y2315627D1*
X1266228Y2311316D1*
X1686261Y3610274D2*
X1684835Y3613125D1*
X1681950Y3616011D1*
X1679098Y3617436D1*
X1673361D1*
X1670476Y3616011D1*
X1667624Y3613125D1*
X1666165Y3610274D1*
X1664739Y3605963D1*
Y3598766D1*
X1666165Y3594489D1*
X1667624Y3591603D1*
X1670476Y3588752D1*
X1673361Y3587292D1*
X1679098D1*
X1681950Y3588752D1*
X1684835Y3591603D1*
X1686261Y3594489D1*
X1696984Y3610240D2*
Y3611666D1*
X1698410Y3614551D1*
X1699836Y3615977D1*
X1702721Y3617403D1*
X1708458D1*
X1711310Y3615977D1*
X1712735Y3614551D1*
X1714195Y3611666D1*
Y3608814D1*
X1712735Y3605929D1*
X1709884Y3601651D1*
X1695525Y3587292D1*
X1715621D1*
X1730621D2*
X1744980Y3617403D1*
X1724884D1*
X1110096Y2318491D2*
X1108671Y2321343D1*
X1105785Y2324228D1*
X1102934Y2325654D1*
X1097197D1*
X1094312Y2324228D1*
X1091460Y2321343D1*
X1090000Y2318491D1*
X1088575Y2314180D1*
Y2306984D1*
X1090000Y2302706D1*
X1091460Y2299821D1*
X1094312Y2296969D1*
X1097197Y2295510D1*
X1102934D1*
X1105785Y2296969D1*
X1108671Y2299821D1*
X1110096Y2302706D1*
X1120819Y2318458D2*
Y2319884D1*
X1122245Y2322769D1*
X1123671Y2324195D1*
X1126556Y2325621D1*
X1132293D1*
X1135145Y2324195D1*
X1136571Y2322769D1*
X1138030Y2319884D1*
Y2317032D1*
X1136571Y2314147D1*
X1133719Y2309869D1*
X1119360Y2295510D1*
X1139456D1*
X1155883Y2325621D2*
X1151605Y2324195D1*
X1150146Y2321343D1*
Y2318458D1*
X1151605Y2315606D1*
X1154457Y2314147D1*
X1160194Y2312721D1*
X1164505Y2311295D1*
X1167356Y2308410D1*
X1168782Y2305558D1*
Y2301247D1*
X1167356Y2298395D1*
X1165931Y2296936D1*
X1161619Y2295510D1*
X1155883D1*
X1151605Y2296936D1*
X1150146Y2298395D1*
X1148720Y2301247D1*
Y2305558D1*
X1150146Y2308410D1*
X1153031Y2311295D1*
X1157308Y2312721D1*
X1163045Y2314147D1*
X1165931Y2315606D1*
X1167356Y2318458D1*
Y2321343D1*
X1165931Y2324195D1*
X1161619Y2325621D1*
X1155883D1*
X1404790Y2832714D2*
X1403364Y2835566D1*
X1400479Y2838451D1*
X1397627Y2839877D1*
X1391890D1*
X1389005Y2838451D1*
X1386153Y2835566D1*
X1384694Y2832714D1*
X1383268Y2828403D1*
Y2821207D1*
X1384694Y2816930D1*
X1386153Y2814044D1*
X1389005Y2811193D1*
X1391890Y2809733D1*
X1397627D1*
X1400479Y2811193D1*
X1403364Y2814044D1*
X1404790Y2816930D1*
X1415513Y2832681D2*
Y2834107D1*
X1416939Y2836992D1*
X1418365Y2838418D1*
X1421250Y2839844D1*
X1426987D1*
X1429839Y2838418D1*
X1431265Y2836992D1*
X1432724Y2834107D1*
Y2831255D1*
X1431265Y2828370D1*
X1428413Y2824092D1*
X1414054Y2809733D1*
X1434150D1*
X1462083Y2829829D2*
X1460624Y2825518D1*
X1457772Y2822633D1*
X1453461Y2821207D1*
X1452035D1*
X1447724Y2822633D1*
X1444872Y2825518D1*
X1443413Y2829829D1*
Y2831255D1*
X1444872Y2835566D1*
X1447724Y2838418D1*
X1452035Y2839844D1*
X1453461D1*
X1457772Y2838418D1*
X1460624Y2835566D1*
X1462083Y2829829D1*
Y2822633D1*
X1460624Y2815470D1*
X1457772Y2811159D1*
X1453461Y2809733D1*
X1450609D1*
X1446298Y2811159D1*
X1444872Y2814044D1*
X1373404Y2416665D2*
X1370552Y2415239D1*
X1367667Y2412354D1*
X1366241Y2409502D1*
Y2403765D1*
X1367667Y2400880D1*
X1370552Y2398028D1*
X1373404Y2396569D1*
X1377715Y2395143D1*
X1384911D1*
X1389189Y2396569D1*
X1392074Y2398028D1*
X1394926Y2400880D1*
X1396385Y2403765D1*
Y2409502D1*
X1394926Y2412354D1*
X1392074Y2415239D1*
X1389189Y2416665D1*
X1366274Y2428814D2*
Y2444566D1*
X1377748Y2435977D1*
Y2440288D1*
X1379174Y2443140D1*
X1380600Y2444566D1*
X1384911Y2446025D1*
X1387763D1*
X1392074Y2444566D1*
X1394959Y2441714D1*
X1396385Y2437403D1*
Y2433092D1*
X1394959Y2428814D1*
X1393500Y2427388D1*
X1390648Y2425929D1*
X1366274Y2463910D2*
X1367700Y2459599D1*
X1372011Y2456714D1*
X1379174Y2455288D1*
X1383485D1*
X1390648Y2456714D1*
X1394959Y2459599D1*
X1396385Y2463910D1*
Y2466762D1*
X1394959Y2471073D1*
X1390648Y2473925D1*
X1383485Y2475384D1*
X1379174D1*
X1372011Y2473925D1*
X1367700Y2471073D1*
X1366274Y2466762D1*
Y2463910D1*
X1372011Y2473925D2*
X1390648Y2456714D1*
X930703Y2525676D2*
X929277Y2528528D1*
X926392Y2531413D1*
X923540Y2532839D1*
X917803D1*
X914918Y2531413D1*
X912066Y2528528D1*
X910607Y2525676D1*
X909181Y2521365D1*
Y2514169D1*
X910607Y2509891D1*
X912066Y2507006D1*
X914918Y2504154D1*
X917803Y2502695D1*
X923540D1*
X926392Y2504154D1*
X929277Y2507006D1*
X930703Y2509891D1*
X942852Y2532806D2*
X958604D1*
X950015Y2521332D1*
X954326D1*
X957178Y2519906D1*
X958604Y2518480D1*
X960063Y2514169D1*
Y2511317D1*
X958604Y2507006D1*
X955752Y2504121D1*
X951441Y2502695D1*
X947130D1*
X942852Y2504121D1*
X941426Y2505580D1*
X939967Y2508432D1*
X969326Y2527069D2*
X972211Y2528528D1*
X976522Y2532806D1*
Y2502695D1*
X879648Y1396083D2*
X876796Y1394657D1*
X873911Y1391772D1*
X872485Y1388920D1*
Y1383183D1*
X873911Y1380298D1*
X876796Y1377446D1*
X879648Y1375987D1*
X883959Y1374561D1*
X891155D1*
X895433Y1375987D1*
X898318Y1377446D1*
X901170Y1380298D1*
X902629Y1383183D1*
Y1388920D1*
X901170Y1391772D1*
X898318Y1394657D1*
X895433Y1396083D1*
X872518Y1408231D2*
Y1423983D1*
X883992Y1415394D1*
Y1419705D1*
X885418Y1422557D1*
X886844Y1423983D1*
X891155Y1425442D1*
X894007D1*
X898318Y1423983D1*
X901203Y1421131D1*
X902629Y1416820D1*
Y1412509D1*
X901203Y1408231D1*
X899744Y1406805D1*
X896892Y1405346D1*
X879681Y1436165D2*
X878255D1*
X875370Y1437591D1*
X873944Y1439017D1*
X872518Y1441902D1*
Y1447639D1*
X873944Y1450491D1*
X875370Y1451917D1*
X878255Y1453376D1*
X881107D1*
X883992Y1451917D1*
X888270Y1449065D1*
X902629Y1434706D1*
Y1454802D1*
X842168Y2072999D2*
X840742Y2075851D1*
X837857Y2078736D1*
X835005Y2080162D1*
X829268D1*
X826383Y2078736D1*
X823531Y2075851D1*
X822072Y2072999D1*
X820646Y2068688D1*
Y2061492D1*
X822072Y2057214D1*
X823531Y2054329D1*
X826383Y2051477D1*
X829268Y2050018D1*
X835005D1*
X837857Y2051477D1*
X840742Y2054329D1*
X842168Y2057214D1*
X854316Y2080129D2*
X870068D1*
X861479Y2068655D1*
X865790D1*
X868642Y2067229D1*
X870068Y2065803D1*
X871527Y2061492D1*
Y2058640D1*
X870068Y2054329D1*
X867216Y2051444D1*
X862905Y2050018D1*
X858594D1*
X854316Y2051444D1*
X852890Y2052903D1*
X851431Y2055755D1*
X883676Y2080129D2*
X899428D1*
X890839Y2068655D1*
X895150D1*
X898002Y2067229D1*
X899428Y2065803D1*
X900887Y2061492D1*
Y2058640D1*
X899428Y2054329D1*
X896576Y2051444D1*
X892265Y2050018D1*
X887954D1*
X883676Y2051444D1*
X882250Y2052903D1*
X880791Y2055755D1*
X1888118Y2624417D2*
X1885266Y2622991D1*
X1882381Y2620106D1*
X1880955Y2617254D1*
Y2611517D1*
X1882381Y2608632D1*
X1885266Y2605780D1*
X1888118Y2604321D1*
X1892429Y2602895D1*
X1899625D1*
X1903903Y2604321D1*
X1906788Y2605780D1*
X1909640Y2608632D1*
X1911099Y2611517D1*
Y2617254D1*
X1909640Y2620106D1*
X1906788Y2622991D1*
X1903903Y2624417D1*
X1880988Y2636565D2*
Y2652317D1*
X1892462Y2643728D1*
Y2648039D1*
X1893888Y2650891D1*
X1895314Y2652317D1*
X1899625Y2653776D1*
X1902477D1*
X1906788Y2652317D1*
X1909673Y2649465D1*
X1911099Y2645154D1*
Y2640843D1*
X1909673Y2636565D1*
X1908214Y2635139D1*
X1905362Y2633680D1*
X1911099Y2677399D2*
X1880988D1*
X1901051Y2663040D1*
Y2684562D1*
X1874339Y3031923D2*
X1871487Y3030497D1*
X1868602Y3027612D1*
X1867176Y3024760D1*
Y3019023D1*
X1868602Y3016138D1*
X1871487Y3013286D1*
X1874339Y3011827D1*
X1878650Y3010401D1*
X1885846D1*
X1890124Y3011827D1*
X1893009Y3013286D1*
X1895861Y3016138D1*
X1897320Y3019023D1*
Y3024760D1*
X1895861Y3027611D1*
X1893009Y3030497D1*
X1890124Y3031922D1*
X1867210Y3044071D2*
Y3059823D1*
X1878684Y3051234D1*
Y3055545D1*
X1880110Y3058397D1*
X1881535Y3059823D1*
X1885846Y3061282D1*
X1888698D1*
X1893009Y3059823D1*
X1895894Y3056971D1*
X1897320Y3052660D1*
Y3048349D1*
X1895894Y3044071D1*
X1894435Y3042645D1*
X1891583Y3041186D1*
X1867210Y3087756D2*
Y3073431D1*
X1880110Y3072005D1*
X1878684Y3073431D1*
X1877224Y3077742D1*
Y3082020D1*
X1878684Y3086331D1*
X1881535Y3089216D1*
X1885846Y3090642D1*
X1888698D1*
X1893009Y3089216D1*
X1895894Y3086331D1*
X1897320Y3082019D1*
Y3077742D1*
X1895894Y3073431D1*
X1894435Y3072005D1*
X1891583Y3070546D1*
X1657804Y2358301D2*
X1656378Y2361153D1*
X1653493Y2364038D1*
X1650641Y2365464D1*
X1644904D1*
X1642019Y2364038D1*
X1639167Y2361153D1*
X1637708Y2358301D1*
X1636282Y2353990D1*
Y2346794D1*
X1637708Y2342516D1*
X1639167Y2339631D1*
X1642019Y2336779D1*
X1644904Y2335320D1*
X1650641D1*
X1653493Y2336779D1*
X1656378Y2339631D1*
X1657804Y2342516D1*
X1669953Y2365431D2*
X1685705D1*
X1677116Y2353957D1*
X1681427D1*
X1684279Y2352531D1*
X1685705Y2351105D1*
X1687164Y2346794D1*
Y2343942D1*
X1685705Y2339631D1*
X1682853Y2336746D1*
X1678542Y2335320D1*
X1674231D1*
X1669953Y2336746D1*
X1668527Y2338205D1*
X1667068Y2341057D1*
X1713638Y2361153D2*
X1712212Y2364005D1*
X1707901Y2365431D1*
X1705049D1*
X1700738Y2364005D1*
X1697853Y2359694D1*
X1696427Y2352531D1*
Y2345368D1*
X1697853Y2339631D1*
X1700738Y2336746D1*
X1705049Y2335320D1*
X1706475D1*
X1710753Y2336746D1*
X1713638Y2339631D1*
X1715064Y2343942D1*
Y2345368D1*
X1713638Y2349679D1*
X1710753Y2352531D1*
X1706475Y2353957D1*
X1705049D1*
X1700738Y2352531D1*
X1697853Y2349679D1*
X1696427Y2345368D1*
X1160896Y2172994D2*
X1159470Y2175846D1*
X1156585Y2178731D1*
X1153733Y2180157D1*
X1147996D1*
X1145111Y2178731D1*
X1142259Y2175846D1*
X1140800Y2172994D1*
X1139374Y2168683D1*
Y2161487D1*
X1140800Y2157209D1*
X1142259Y2154324D1*
X1145111Y2151472D1*
X1147996Y2150013D1*
X1153733D1*
X1156585Y2151472D1*
X1159470Y2154324D1*
X1160896Y2157209D1*
X1173045Y2180124D2*
X1188797D1*
X1180208Y2168650D1*
X1184519D1*
X1187371Y2167224D1*
X1188797Y2165798D1*
X1190256Y2161487D1*
Y2158635D1*
X1188797Y2154324D1*
X1185945Y2151439D1*
X1181634Y2150013D1*
X1177323D1*
X1173045Y2151439D1*
X1171619Y2152898D1*
X1170160Y2155750D1*
X1205256Y2150013D2*
X1219615Y2180124D1*
X1199519D1*
X651877Y724263D2*
X650451Y727115D1*
X647566Y730000D1*
X644714Y731426D1*
X638977D1*
X636092Y730000D1*
X633240Y727115D1*
X631781Y724263D1*
X630355Y719952D1*
Y712756D1*
X631781Y708478D1*
X633240Y705593D1*
X636092Y702741D1*
X638977Y701282D1*
X644714D1*
X647566Y702741D1*
X650451Y705593D1*
X651877Y708478D1*
X664026Y731393D2*
X679778D1*
X671189Y719919D1*
X675500D1*
X678352Y718493D1*
X679778Y717067D1*
X681237Y712756D1*
Y709904D1*
X679778Y705593D1*
X676926Y702708D1*
X672615Y701282D1*
X668304D1*
X664026Y702708D1*
X662600Y704167D1*
X661141Y707019D1*
X697663Y731393D2*
X693385Y729967D1*
X691926Y727115D1*
Y724230D1*
X693385Y721378D1*
X696237Y719919D1*
X701974Y718493D1*
X706285Y717067D1*
X709137Y714182D1*
X710563Y711330D1*
Y707019D1*
X709137Y704167D1*
X707711Y702708D1*
X703400Y701282D1*
X697663D1*
X693385Y702708D1*
X691926Y704167D1*
X690500Y707019D1*
Y711330D1*
X691926Y714182D1*
X694811Y717067D1*
X699089Y718493D1*
X704826Y719919D1*
X707711Y721378D1*
X709137Y724230D1*
Y727115D1*
X707711Y729967D1*
X703400Y731393D1*
X697663D1*
X1431864Y682105D2*
X1429012Y680679D1*
X1426127Y677794D1*
X1424701Y674942D1*
Y669205D1*
X1426127Y666320D1*
X1429012Y663468D1*
X1431864Y662009D1*
X1436175Y660583D1*
X1443371D1*
X1447649Y662009D1*
X1450534Y663468D1*
X1453386Y666320D1*
X1454845Y669205D1*
Y674942D1*
X1453386Y677794D1*
X1450534Y680679D1*
X1447649Y682105D1*
X1424735Y694254D2*
Y710006D1*
X1436209Y701417D1*
Y705728D1*
X1437634Y708580D1*
X1439060Y710006D1*
X1443371Y711465D1*
X1446223D1*
X1450534Y710006D1*
X1453419Y707154D1*
X1454845Y702843D1*
Y698532D1*
X1453419Y694254D1*
X1451960Y692828D1*
X1449108Y691369D1*
X1434749Y739398D2*
X1439060Y737939D1*
X1441945Y735087D1*
X1443371Y730776D1*
Y729350D1*
X1441945Y725039D1*
X1439060Y722187D1*
X1434749Y720728D1*
X1433323D1*
X1429012Y722187D1*
X1426160Y725039D1*
X1424735Y729350D1*
Y730776D1*
X1426160Y735087D1*
X1429012Y737939D1*
X1434749Y739398D1*
X1441945D1*
X1449108Y737939D1*
X1453419Y735087D1*
X1454845Y730776D1*
Y727924D1*
X1453419Y723613D1*
X1450534Y722187D1*
X464583Y700184D2*
X463158Y703036D1*
X460272Y705921D1*
X457421Y707347D1*
X451684D1*
X448798Y705921D1*
X445947Y703036D1*
X444487Y700184D1*
X443062Y695873D1*
Y688677D1*
X444487Y684399D1*
X445947Y681514D1*
X448798Y678662D1*
X451684Y677203D1*
X457421D1*
X460272Y678662D1*
X463158Y681514D1*
X464583Y684399D1*
X488206Y677203D2*
Y707314D1*
X473847Y687251D1*
X495369D1*
X513255Y707314D2*
X508944Y705888D1*
X506058Y701577D1*
X504633Y694414D1*
Y690103D1*
X506058Y682940D1*
X508944Y678629D1*
X513255Y677203D1*
X516106D1*
X520417Y678629D1*
X523269Y682940D1*
X524729Y690103D1*
Y694414D1*
X523269Y701577D1*
X520417Y705888D1*
X516106Y707314D1*
X513255D1*
X523269Y701577D2*
X506058Y682940D1*
X1372119Y1918493D2*
X1370693Y1921345D1*
X1367808Y1924230D1*
X1364956Y1925656D1*
X1359219D1*
X1356334Y1924230D1*
X1353482Y1921345D1*
X1352023Y1918493D1*
X1350597Y1914182D1*
Y1906986D1*
X1352023Y1902708D1*
X1353482Y1899823D1*
X1356334Y1896971D1*
X1359219Y1895512D1*
X1364956D1*
X1367808Y1896971D1*
X1370693Y1899823D1*
X1372119Y1902708D1*
X1395741Y1895512D2*
Y1925622D1*
X1381382Y1905560D1*
X1402904D1*
X1412168Y1919885D2*
X1415053Y1921345D1*
X1419364Y1925622D1*
Y1895512D1*
X905578Y667998D2*
X904152Y670850D1*
X901267Y673735D1*
X898415Y675161D1*
X892678D1*
X889793Y673735D1*
X886941Y670850D1*
X885482Y667998D1*
X884056Y663687D1*
Y656491D1*
X885482Y652213D1*
X886941Y649328D1*
X889793Y646476D1*
X892678Y645017D1*
X898415D1*
X901267Y646476D1*
X904152Y649328D1*
X905578Y652213D1*
X929201Y645017D2*
Y675128D1*
X914842Y655065D1*
X936364D1*
X947086Y667965D2*
Y669391D1*
X948512Y672276D1*
X949938Y673702D1*
X952823Y675128D1*
X958560D1*
X961412Y673702D1*
X962838Y672276D1*
X964297Y669391D1*
Y666539D1*
X962838Y663654D1*
X959986Y659376D1*
X945627Y645017D1*
X965723D1*
X1553363Y495213D2*
X1551937Y498065D1*
X1549052Y500950D1*
X1546200Y502376D1*
X1540463D1*
X1537578Y500950D1*
X1534726Y498065D1*
X1533267Y495213D1*
X1531841Y490902D1*
Y483706D1*
X1533267Y479428D1*
X1534726Y476543D1*
X1537578Y473691D1*
X1540463Y472232D1*
X1546200D1*
X1549052Y473691D1*
X1551937Y476543D1*
X1553363Y479428D1*
X1576986Y472232D2*
Y502343D1*
X1562627Y482280D1*
X1584148D1*
X1596297Y502343D2*
X1612049D1*
X1603460Y490869D1*
X1607771D1*
X1610623Y489443D1*
X1612049Y488017D1*
X1613508Y483706D1*
Y480854D1*
X1612049Y476543D1*
X1609197Y473658D1*
X1604886Y472232D1*
X1600575D1*
X1596297Y473658D1*
X1594871Y475117D1*
X1593412Y477969D1*
X1505394Y2230515D2*
X1503968Y2233367D1*
X1501083Y2236252D1*
X1498231Y2237678D1*
X1492494D1*
X1489609Y2236252D1*
X1486757Y2233367D1*
X1485298Y2230515D1*
X1483872Y2226204D1*
Y2219008D1*
X1485298Y2214730D1*
X1486757Y2211845D1*
X1489609Y2208993D1*
X1492494Y2207534D1*
X1498231D1*
X1501083Y2208993D1*
X1503968Y2211845D1*
X1505394Y2214730D1*
X1529017Y2207534D2*
Y2237645D1*
X1514658Y2217582D1*
X1536180D1*
X1559802Y2207534D2*
Y2237645D1*
X1545443Y2217582D1*
X1566965D1*
X1422111Y1038959D2*
X1420685Y1041810D1*
X1417800Y1044696D1*
X1414948Y1046122D1*
X1409211D1*
X1406326Y1044696D1*
X1403474Y1041810D1*
X1402015Y1038959D1*
X1400589Y1034648D1*
Y1027451D1*
X1402015Y1023174D1*
X1403474Y1020289D1*
X1406326Y1017437D1*
X1409211Y1015978D1*
X1414948D1*
X1417800Y1017437D1*
X1420685Y1020289D1*
X1422111Y1023174D1*
X1445734Y1015978D2*
Y1046088D1*
X1431375Y1026026D1*
X1452897D1*
X1479371Y1046088D2*
X1465045D1*
X1463619Y1033188D1*
X1465045Y1034614D1*
X1469356Y1036074D1*
X1473634D1*
X1477945Y1034614D1*
X1480830Y1031762D1*
X1482256Y1027451D1*
Y1024600D1*
X1480830Y1020289D1*
X1477945Y1017403D1*
X1473634Y1015978D1*
X1469356D1*
X1465045Y1017403D1*
X1463619Y1018863D1*
X1462160Y1021714D1*
X647841Y1038959D2*
X646415Y1041810D1*
X643530Y1044696D1*
X640678Y1046122D1*
X634941D1*
X632056Y1044696D1*
X629204Y1041810D1*
X627745Y1038959D1*
X626319Y1034648D1*
Y1027451D1*
X627745Y1023174D1*
X629204Y1020289D1*
X632056Y1017437D1*
X634941Y1015978D1*
X640678D1*
X643530Y1017437D1*
X646415Y1020289D1*
X647841Y1023174D1*
X671463Y1015978D2*
Y1046088D1*
X657104Y1026026D1*
X678626D1*
X705101Y1041810D2*
X703675Y1044662D1*
X699364Y1046088D1*
X696512D1*
X692201Y1044662D1*
X689316Y1040351D1*
X687890Y1033188D1*
Y1026026D1*
X689316Y1020289D1*
X692201Y1017403D1*
X696512Y1015978D1*
X697938D1*
X702215Y1017403D1*
X705101Y1020289D1*
X706527Y1024600D1*
Y1026026D1*
X705101Y1030337D1*
X702215Y1033188D1*
X697938Y1034614D1*
X696512D1*
X692201Y1033188D1*
X689316Y1030337D1*
X687890Y1026026D1*
X1349339Y2991888D2*
X1346487Y2990462D1*
X1343602Y2987577D1*
X1342176Y2984725D1*
Y2978988D1*
X1343602Y2976103D1*
X1346487Y2973251D1*
X1349339Y2971792D1*
X1353650Y2970366D1*
X1360846D1*
X1365124Y2971792D1*
X1368009Y2973251D1*
X1370861Y2976103D1*
X1372320Y2978988D1*
Y2984725D1*
X1370861Y2987577D1*
X1368009Y2990462D1*
X1365124Y2991888D1*
X1372320Y3015511D2*
X1342210D1*
X1362272Y3001152D1*
Y3022673D1*
X1372320Y3037674D2*
X1342210Y3052033D1*
Y3031937D1*
X1537779Y3031435D2*
X1536353Y3034287D1*
X1533467Y3037172D1*
X1530616Y3038598D1*
X1524879D1*
X1521994Y3037172D1*
X1519142Y3034287D1*
X1517683Y3031435D1*
X1516257Y3027124D1*
Y3019928D1*
X1517683Y3015650D1*
X1519142Y3012765D1*
X1521994Y3009913D1*
X1524879Y3008454D1*
X1530616D1*
X1533467Y3009913D1*
X1536353Y3012765D1*
X1537779Y3015650D1*
X1561401Y3008454D2*
Y3038565D1*
X1547042Y3018502D1*
X1568564D1*
X1584991Y3038565D2*
X1580713Y3037139D1*
X1579254Y3034287D1*
Y3031402D1*
X1580713Y3028550D1*
X1583565Y3027091D1*
X1589302Y3025665D1*
X1593613Y3024239D1*
X1596464Y3021354D1*
X1597890Y3018502D1*
Y3014191D1*
X1596464Y3011339D1*
X1595039Y3009880D1*
X1590727Y3008454D1*
X1584991D1*
X1580713Y3009880D1*
X1579254Y3011339D1*
X1577828Y3014191D1*
Y3018502D1*
X1579254Y3021354D1*
X1582139Y3024239D1*
X1586416Y3025665D1*
X1592153Y3027091D1*
X1595039Y3028550D1*
X1596464Y3031402D1*
Y3034287D1*
X1595039Y3037139D1*
X1590727Y3038565D1*
X1584991D1*
X1860080Y2077305D2*
X1858654Y2080157D1*
X1855769Y2083042D1*
X1852917Y2084468D1*
X1847180D1*
X1844295Y2083042D1*
X1841443Y2080157D1*
X1839984Y2077305D1*
X1838558Y2072994D1*
Y2065798D1*
X1839984Y2061520D1*
X1841443Y2058635D1*
X1844295Y2055783D1*
X1847180Y2054324D1*
X1852917D1*
X1855769Y2055783D1*
X1858654Y2058635D1*
X1860080Y2061520D1*
X1883702Y2054324D2*
Y2084435D1*
X1869343Y2064372D1*
X1890865D1*
X1918799Y2074420D2*
X1917340Y2070109D1*
X1914488Y2067224D1*
X1910177Y2065798D1*
X1908751D1*
X1904440Y2067224D1*
X1901588Y2070109D1*
X1900129Y2074420D1*
Y2075846D1*
X1901588Y2080157D1*
X1904440Y2083009D1*
X1908751Y2084435D1*
X1910177D1*
X1914488Y2083009D1*
X1917340Y2080157D1*
X1918799Y2074420D1*
Y2067224D1*
X1917340Y2060061D1*
X1914488Y2055750D1*
X1910177Y2054324D1*
X1907325D1*
X1903014Y2055750D1*
X1901588Y2058635D1*
X1292153Y2410416D2*
X1289301Y2408990D1*
X1286416Y2406105D1*
X1284990Y2403253D1*
Y2397516D1*
X1286416Y2394631D1*
X1289301Y2391779D1*
X1292153Y2390320D1*
X1296464Y2388894D1*
X1303660D1*
X1307938Y2390320D1*
X1310823Y2391779D1*
X1313675Y2394631D1*
X1315134Y2397516D1*
Y2403253D1*
X1313675Y2406105D1*
X1310823Y2408990D1*
X1307938Y2410416D1*
X1285023Y2436890D2*
Y2422565D1*
X1297923Y2421139D1*
X1296497Y2422565D1*
X1295038Y2426876D1*
Y2431153D1*
X1296497Y2435464D1*
X1299349Y2438349D1*
X1303660Y2439775D1*
X1306512D1*
X1310823Y2438349D1*
X1313708Y2435464D1*
X1315134Y2431153D1*
Y2426876D1*
X1313708Y2422564D1*
X1312249Y2421139D1*
X1309397Y2419679D1*
X1285023Y2457661D2*
X1286449Y2453350D1*
X1290760Y2450465D1*
X1297923Y2449039D1*
X1302234D1*
X1309397Y2450465D1*
X1313708Y2453350D1*
X1315134Y2457661D1*
Y2460513D1*
X1313708Y2464824D1*
X1309397Y2467676D1*
X1302234Y2469135D1*
X1297923D1*
X1290760Y2467676D1*
X1286449Y2464824D1*
X1285023Y2460513D1*
Y2457661D1*
X1290760Y2467676D2*
X1309397Y2450465D1*
X511582Y4630774D2*
Y4600630D1*
X521630D1*
X525941Y4602089D1*
X528826Y4604941D1*
X530252Y4607826D1*
X531678Y4612104D1*
Y4619300D1*
X530252Y4623611D1*
X528826Y4626463D1*
X525941Y4629348D1*
X521630Y4630774D1*
X511582D1*
X540941Y4625004D2*
X543826Y4626463D1*
X548137Y4630741D1*
Y4600630D1*
X1268737Y3897912D2*
Y3867768D1*
X1299523Y3890749D2*
X1298097Y3893601D1*
X1295211Y3896486D1*
X1292360Y3897912D1*
X1286623D1*
X1283738Y3896486D1*
X1280886Y3893601D1*
X1279427Y3890749D1*
X1278001Y3886438D1*
Y3879241D1*
X1279427Y3874964D1*
X1280886Y3872079D1*
X1283738Y3869227D1*
X1286623Y3867768D1*
X1292360D1*
X1295211Y3869227D1*
X1298097Y3872079D1*
X1299523Y3874964D1*
X1308786Y3892141D2*
X1311671Y3893601D1*
X1315982Y3897878D1*
Y3867768D1*
X442956Y3914501D2*
Y3884357D1*
X473742Y3907338D2*
X472316Y3910190D1*
X469431Y3913075D1*
X466579Y3914501D1*
X460842D1*
X457957Y3913075D1*
X455105Y3910190D1*
X453646Y3907338D1*
X452220Y3903027D1*
Y3895831D1*
X453646Y3891553D1*
X455105Y3888668D1*
X457957Y3885816D1*
X460842Y3884357D1*
X466579D1*
X469431Y3885816D1*
X472316Y3888668D1*
X473742Y3891553D1*
X484465Y3907305D2*
Y3908731D1*
X485890Y3911616D1*
X487316Y3913042D1*
X490201Y3914468D1*
X495938D1*
X498790Y3913042D1*
X500216Y3911616D1*
X501675Y3908731D1*
Y3905879D1*
X500216Y3902994D1*
X497364Y3898716D1*
X483005Y3884357D1*
X503101D1*
X843539Y1530957D2*
Y1500813D1*
X874325Y1523795D2*
X872899Y1526646D1*
X870014Y1529532D1*
X867162Y1530957D1*
X861425D1*
X858540Y1529532D1*
X855688Y1526646D1*
X854229Y1523795D1*
X852803Y1519484D1*
Y1512287D1*
X854229Y1508010D1*
X855688Y1505124D1*
X858540Y1502273D1*
X861425Y1500813D1*
X867162D1*
X870014Y1502273D1*
X872899Y1505124D1*
X874325Y1508010D1*
X886473Y1530924D2*
X902225D1*
X893636Y1519450D1*
X897947D1*
X900799Y1518024D1*
X902225Y1516598D1*
X903684Y1512287D1*
Y1509436D1*
X902225Y1505124D1*
X899373Y1502239D1*
X895062Y1500813D1*
X890751D1*
X886473Y1502239D1*
X885047Y1503699D1*
X883588Y1506550D1*
X1615463Y1533322D2*
Y1503178D1*
X1646248Y1526159D2*
X1644822Y1529011D1*
X1641937Y1531896D1*
X1639085Y1533322D1*
X1633348D1*
X1630463Y1531896D1*
X1627611Y1529011D1*
X1626152Y1526159D1*
X1624726Y1521848D1*
Y1514652D1*
X1626152Y1510374D1*
X1627611Y1507489D1*
X1630463Y1504637D1*
X1633348Y1503178D1*
X1639085D1*
X1641937Y1504637D1*
X1644822Y1507489D1*
X1646248Y1510374D1*
X1669871Y1503178D2*
Y1533289D1*
X1655512Y1513226D1*
X1677034D1*
X776254Y3159863D2*
Y3129719D1*
X807040Y3152700D2*
X805614Y3155552D1*
X802729Y3158437D1*
X799877Y3159863D1*
X794140D1*
X791255Y3158437D1*
X788403Y3155552D1*
X786944Y3152700D1*
X785518Y3148389D1*
Y3141193D1*
X786944Y3136915D1*
X788403Y3134030D1*
X791255Y3131178D1*
X794140Y3129719D1*
X799877D1*
X802729Y3131178D1*
X805614Y3134030D1*
X807040Y3136915D1*
X833514Y3159830D2*
X819188D1*
X817762Y3146930D1*
X819188Y3148356D1*
X823499Y3149815D1*
X827777D1*
X832088Y3148356D1*
X834973Y3145504D1*
X836399Y3141193D1*
Y3138341D1*
X834973Y3134030D1*
X832088Y3131145D1*
X827777Y3129719D1*
X823499D1*
X819188Y3131145D1*
X817762Y3132604D1*
X816303Y3135456D1*
X1825418Y1515291D2*
Y1485147D1*
X1856204Y1508128D2*
X1854778Y1510980D1*
X1851893Y1513865D1*
X1849041Y1515291D1*
X1843304D1*
X1840419Y1513865D1*
X1837567Y1510980D1*
X1836108Y1508128D1*
X1834682Y1503817D1*
Y1496621D1*
X1836108Y1492343D1*
X1837567Y1489458D1*
X1840419Y1486606D1*
X1843304Y1485147D1*
X1849041D1*
X1851893Y1486606D1*
X1854778Y1489458D1*
X1856204Y1492343D1*
X1882678Y1510980D2*
X1881252Y1513832D1*
X1876941Y1515258D1*
X1874089D1*
X1869778Y1513832D1*
X1866893Y1509521D1*
X1865467Y1502358D1*
Y1495195D1*
X1866893Y1489458D1*
X1869778Y1486573D1*
X1874089Y1485147D1*
X1875515D1*
X1879793Y1486573D1*
X1882678Y1489458D1*
X1884104Y1493769D1*
Y1495195D1*
X1882678Y1499506D1*
X1879793Y1502358D1*
X1875515Y1503784D1*
X1874089D1*
X1869778Y1502358D1*
X1866893Y1499506D1*
X1865467Y1495195D1*
X1847862Y4351993D2*
Y4321849D1*
X1878647Y4344830D2*
X1877221Y4347682D1*
X1874336Y4350567D1*
X1871484Y4351993D1*
X1865747D1*
X1862862Y4350567D1*
X1860010Y4347682D1*
X1858551Y4344830D1*
X1857125Y4340519D1*
Y4333323D1*
X1858551Y4329045D1*
X1860010Y4326160D1*
X1862862Y4323308D1*
X1865747Y4321849D1*
X1871484D1*
X1874336Y4323308D1*
X1877221Y4326160D1*
X1878647Y4329045D1*
X1893648Y4321849D2*
X1908007Y4351960D1*
X1887911D1*
X1884007Y2509120D2*
X1914151D1*
X1891170Y2539905D2*
X1888318Y2538480D1*
X1885433Y2535594D1*
X1884007Y2532743D1*
Y2527006D1*
X1885433Y2524121D1*
X1888318Y2521269D1*
X1891170Y2519810D1*
X1895481Y2518384D1*
X1902677D1*
X1906955Y2519810D1*
X1909840Y2521269D1*
X1912692Y2524120D1*
X1914151Y2527006D1*
Y2532743D1*
X1912692Y2535594D1*
X1909840Y2538479D1*
X1906955Y2539905D1*
X1884040Y2556332D2*
X1885466Y2552054D1*
X1888318Y2550595D1*
X1891203D1*
X1894055Y2552054D1*
X1895514Y2554906D1*
X1896940Y2560643D1*
X1898366Y2564954D1*
X1901251Y2567806D1*
X1904103Y2569232D1*
X1908414D1*
X1911266Y2567806D1*
X1912725Y2566380D1*
X1914151Y2562069D1*
Y2556332D1*
X1912725Y2552054D1*
X1911266Y2550595D1*
X1908414Y2549169D1*
X1904103D1*
X1901251Y2550595D1*
X1898366Y2553480D1*
X1896940Y2557758D1*
X1895514Y2563495D1*
X1894055Y2566380D1*
X1891203Y2567806D1*
X1888318D1*
X1885466Y2566380D1*
X1884040Y2562069D1*
Y2556332D1*
X1566887Y1033331D2*
Y1003187D1*
X1597673Y1026169D2*
X1596247Y1029020D1*
X1593362Y1031906D1*
X1590510Y1033331D1*
X1584773D1*
X1581888Y1031906D1*
X1579036Y1029020D1*
X1577577Y1026169D1*
X1576151Y1021858D1*
Y1014661D1*
X1577577Y1010384D1*
X1579036Y1007499D1*
X1581888Y1004647D1*
X1584773Y1003187D1*
X1590510D1*
X1593362Y1004647D1*
X1596247Y1007499D1*
X1597673Y1010384D1*
X1625606Y1023283D2*
X1624147Y1018972D1*
X1621295Y1016087D1*
X1616984Y1014661D1*
X1615558D1*
X1611247Y1016087D1*
X1608395Y1018972D1*
X1606936Y1023283D1*
Y1024709D1*
X1608395Y1029020D1*
X1611247Y1031872D1*
X1615558Y1033298D1*
X1616984D1*
X1621295Y1031872D1*
X1624147Y1029020D1*
X1625606Y1023283D1*
Y1016087D1*
X1624147Y1008924D1*
X1621295Y1004613D1*
X1616984Y1003187D1*
X1614132D1*
X1609821Y1004613D1*
X1608395Y1007499D1*
X772807Y1037219D2*
Y1007075D1*
X803592Y1030056D2*
X802166Y1032908D1*
X799281Y1035793D1*
X796429Y1037219D1*
X790692D1*
X787807Y1035793D1*
X784955Y1032908D1*
X783496Y1030056D1*
X782070Y1025745D1*
Y1018549D1*
X783496Y1014271D1*
X784955Y1011386D1*
X787807Y1008534D1*
X790692Y1007075D1*
X796429D1*
X799281Y1008534D1*
X802166Y1011386D1*
X803592Y1014271D1*
X812856Y1031448D2*
X815741Y1032908D1*
X820052Y1037185D1*
Y1007075D1*
X837937Y1037185D2*
X833626Y1035760D1*
X830741Y1031448D1*
X829315Y1024286D1*
Y1019975D1*
X830741Y1012812D1*
X833626Y1008501D1*
X837937Y1007075D1*
X840789D1*
X845100Y1008501D1*
X847952Y1012812D1*
X849411Y1019975D1*
Y1024286D1*
X847952Y1031448D1*
X845100Y1035760D1*
X840789Y1037185D1*
X837937D1*
X847952Y1031448D2*
X830741Y1012812D1*
X1091757Y1587219D2*
Y1557075D1*
X1122542Y1580056D2*
X1121116Y1582908D1*
X1118231Y1585793D1*
X1115379Y1587219D1*
X1109642D1*
X1106757Y1585793D1*
X1103905Y1582908D1*
X1102446Y1580056D1*
X1101020Y1575745D1*
Y1568549D1*
X1102446Y1564271D1*
X1103905Y1561386D1*
X1106757Y1558534D1*
X1109642Y1557075D1*
X1115379D1*
X1118231Y1558534D1*
X1121116Y1561386D1*
X1122542Y1564271D1*
X1131806Y1581448D2*
X1134691Y1582908D1*
X1139002Y1587185D1*
Y1557075D1*
X1148265Y1581448D2*
X1151150Y1582908D1*
X1155461Y1587185D1*
Y1557075D1*
X1410906Y3315306D2*
X1433854D1*
X1438165Y3313880D1*
X1439591Y3312421D1*
X1441050Y3309569D1*
Y3306684D1*
X1439591Y3303832D1*
X1438165Y3302406D1*
X1433854Y3300947D1*
X1431002D1*
X1426691Y3324569D2*
Y3337502D1*
X1425265Y3341780D1*
X1423806Y3343239D1*
X1420954Y3344665D1*
X1416643D1*
X1413791Y3343239D1*
X1412332Y3341780D1*
X1410906Y3337502D1*
Y3324569D1*
X1441050D1*
X1418102Y3355388D2*
X1416676D1*
X1413791Y3356814D1*
X1412365Y3358240D1*
X1410939Y3361125D1*
Y3366862D1*
X1412365Y3369714D1*
X1413791Y3371140D1*
X1416676Y3372599D1*
X1419528D1*
X1422413Y3371140D1*
X1426691Y3368288D1*
X1441050Y3353929D1*
Y3374025D1*
X1432680Y4406412D2*
Y4383464D1*
X1431254Y4379153D1*
X1429794Y4377727D1*
X1426943Y4376268D1*
X1424057D1*
X1421206Y4377727D1*
X1419780Y4379153D1*
X1418321Y4383464D1*
Y4386316D1*
X1441943Y4390627D2*
X1454876D1*
X1459154Y4392053D1*
X1460613Y4393512D1*
X1462039Y4396364D1*
Y4400675D1*
X1460613Y4403526D1*
X1459154Y4404986D1*
X1454876Y4406412D1*
X1441943D1*
Y4376268D1*
X1474188Y4406378D2*
X1489940D1*
X1481351Y4394904D1*
X1485662D1*
X1488514Y4393478D1*
X1489940Y4392053D1*
X1491399Y4387741D1*
Y4384890D1*
X1489940Y4380579D1*
X1487088Y4377693D1*
X1482777Y4376268D1*
X1478466D1*
X1474188Y4377693D1*
X1472762Y4379153D1*
X1471303Y4382005D1*
X462414Y1970586D2*
X459562Y1969193D1*
X456677Y1966308D1*
X455251Y1963423D1*
X453791Y1959112D1*
Y1951949D1*
X455251Y1947638D1*
X456677Y1944786D1*
X459562Y1941901D1*
X462414Y1940475D1*
X468150D1*
X471036Y1941901D1*
X473887Y1944786D1*
X475313Y1947638D1*
X476773Y1951949D1*
Y1959112D1*
X475313Y1963423D1*
X473887Y1966308D1*
X471036Y1969193D1*
X468150Y1970586D1*
X462414D1*
X466725Y1946212D2*
X475313Y1937590D1*
X486036Y1964816D2*
X488921Y1966275D1*
X493232Y1970553D1*
Y1940442D1*
X718464Y1964335D2*
X715612Y1962943D1*
X712727Y1960058D1*
X711301Y1957172D1*
X709841Y1952861D1*
Y1945699D1*
X711301Y1941388D1*
X712727Y1938536D1*
X715612Y1935651D1*
X718464Y1934225D1*
X724201D1*
X727086Y1935651D1*
X729938Y1938536D1*
X731363Y1941388D1*
X732823Y1945699D1*
Y1952861D1*
X731363Y1957172D1*
X729938Y1960058D1*
X727086Y1962943D1*
X724201Y1964335D1*
X718464D1*
X722775Y1939962D2*
X731363Y1931340D1*
X743545Y1957139D2*
Y1958565D1*
X744971Y1961450D1*
X746397Y1962876D1*
X749282Y1964302D1*
X755019D1*
X757871Y1962876D1*
X759297Y1961450D1*
X760756Y1958565D1*
Y1955713D1*
X759297Y1952828D1*
X756445Y1948550D1*
X742086Y1934191D1*
X762182D1*
X643561Y3190095D2*
X640709Y3188702D1*
X637824Y3185817D1*
X636398Y3182932D1*
X634939Y3178621D1*
Y3171458D1*
X636398Y3167147D1*
X637824Y3164295D1*
X640709Y3161410D1*
X643561Y3159984D1*
X649298D1*
X652183Y3161410D1*
X655035Y3164295D1*
X656461Y3167147D1*
X657920Y3171458D1*
Y3178621D1*
X656461Y3182932D1*
X655035Y3185817D1*
X652183Y3188702D1*
X649298Y3190095D1*
X643561D1*
X647872Y3165721D2*
X656461Y3157099D1*
X670068Y3190062D2*
X685820D1*
X677231Y3178588D1*
X681542D1*
X684394Y3177162D1*
X685820Y3175736D1*
X687279Y3171425D1*
Y3168573D1*
X685820Y3164262D1*
X682968Y3161377D1*
X678657Y3159951D1*
X674346D1*
X670068Y3161377D1*
X668642Y3162836D1*
X667183Y3165688D1*
X1692623Y2847660D2*
X1689771Y2846267D1*
X1686886Y2843382D1*
X1685460Y2840497D1*
X1684001Y2836186D1*
Y2829023D1*
X1685460Y2824712D1*
X1686886Y2821860D1*
X1689771Y2818975D1*
X1692623Y2817549D1*
X1698360D1*
X1701245Y2818975D1*
X1704097Y2821860D1*
X1705523Y2824712D1*
X1706982Y2829023D1*
Y2836186D1*
X1705523Y2840497D1*
X1704097Y2843382D1*
X1701245Y2846267D1*
X1698360Y2847660D1*
X1692623D1*
X1696934Y2823286D2*
X1705523Y2814664D1*
X1730605Y2817516D2*
Y2847626D1*
X1716246Y2827564D1*
X1737768D1*
X536849Y2140166D2*
Y2153066D1*
X535390Y2157377D1*
X533964Y2158836D1*
X531112Y2160262D1*
X528227D1*
X525375Y2158836D1*
X523916Y2157377D1*
X522490Y2153066D1*
Y2140166D1*
X552634D1*
X536849Y2150214D2*
X552634Y2160262D1*
X528260Y2169525D2*
X526801Y2172410D1*
X522523Y2176721D1*
X552634D1*
X649349Y2133716D2*
Y2146616D1*
X647890Y2150927D1*
X646464Y2152386D1*
X643612Y2153812D1*
X640727D1*
X637875Y2152386D1*
X636416Y2150927D1*
X634990Y2146616D1*
Y2133716D1*
X665134D1*
X649349Y2143764D2*
X665134Y2153812D1*
X642186Y2164535D2*
X640760D1*
X637875Y2165960D1*
X636449Y2167386D1*
X635023Y2170272D1*
Y2176008D1*
X636449Y2178860D1*
X637875Y2180286D1*
X640760Y2181745D1*
X643612D1*
X646497Y2180286D1*
X650775Y2177434D1*
X665134Y2163075D1*
Y2183171D1*
X1088596Y3580490D2*
X1101496D1*
X1105807Y3581949D1*
X1107266Y3583375D1*
X1108692Y3586226D1*
Y3589112D1*
X1107266Y3591963D1*
X1105807Y3593423D1*
X1101496Y3594849D1*
X1088596D1*
Y3564705D1*
X1098644Y3580490D2*
X1108692Y3564705D1*
X1120841Y3594815D2*
X1136593D1*
X1128004Y3583341D1*
X1132315D1*
X1135167Y3581915D1*
X1136593Y3580490D1*
X1138052Y3576178D1*
Y3573327D1*
X1136593Y3569016D1*
X1133741Y3566130D1*
X1129430Y3564705D1*
X1125119D1*
X1120841Y3566130D1*
X1119415Y3567590D1*
X1117956Y3570442D1*
X1087894Y3424243D2*
X1100794D1*
X1105105Y3425702D1*
X1106564Y3427128D1*
X1107990Y3429980D1*
Y3432865D1*
X1106564Y3435717D1*
X1105105Y3437176D1*
X1100794Y3438602D1*
X1087894D1*
Y3408458D1*
X1097942Y3424243D2*
X1107990Y3408458D1*
X1131612D2*
Y3438569D1*
X1117253Y3418506D1*
X1138775D1*
X1088596Y3661739D2*
X1101496D1*
X1105807Y3663198D1*
X1107266Y3664624D1*
X1108692Y3667476D1*
Y3670361D1*
X1107266Y3673213D1*
X1105807Y3674672D1*
X1101496Y3676098D1*
X1088596D1*
Y3645954D1*
X1098644Y3661739D2*
X1108692Y3645954D1*
X1135167Y3676065D2*
X1120841D1*
X1119415Y3663165D1*
X1120841Y3664591D1*
X1125152Y3666050D1*
X1129430D1*
X1133741Y3664591D1*
X1136626Y3661739D1*
X1138052Y3657428D1*
Y3654576D1*
X1136626Y3650265D1*
X1133741Y3647380D1*
X1129430Y3645954D1*
X1125152D1*
X1120841Y3647380D1*
X1119415Y3648839D1*
X1117956Y3651691D1*
X1089338Y3742983D2*
X1102238D1*
X1106549Y3744442D1*
X1108008Y3745868D1*
X1109434Y3748720D1*
Y3751605D1*
X1108008Y3754457D1*
X1106549Y3755916D1*
X1102238Y3757342D1*
X1089338D1*
Y3727198D1*
X1099386Y3742983D2*
X1109434Y3727198D1*
X1135908Y3753031D2*
X1134482Y3755883D1*
X1130171Y3757309D1*
X1127319D1*
X1123008Y3755883D1*
X1120123Y3751572D1*
X1118697Y3744409D1*
Y3737246D1*
X1120123Y3731509D1*
X1123008Y3728624D1*
X1127319Y3727198D1*
X1128745D1*
X1133023Y3728624D1*
X1135908Y3731509D1*
X1137334Y3735820D1*
Y3737246D1*
X1135908Y3741557D1*
X1133023Y3744409D1*
X1128745Y3745835D1*
X1127319D1*
X1123008Y3744409D1*
X1120123Y3741557D1*
X1118697Y3737246D1*
X1202487Y3869942D2*
Y3882842D1*
X1201028Y3887153D1*
X1199602Y3888612D1*
X1196750Y3890038D1*
X1193865D1*
X1191013Y3888612D1*
X1189554Y3887153D1*
X1188128Y3882842D1*
Y3869942D1*
X1218272D1*
X1202487Y3879990D2*
X1218272Y3890038D1*
Y3905038D2*
X1188161Y3919397D1*
Y3899301D1*
X1088613Y4036739D2*
X1101513D1*
X1105824Y4038198D1*
X1107283Y4039624D1*
X1108709Y4042476D1*
Y4045361D1*
X1107283Y4048213D1*
X1105824Y4049672D1*
X1101513Y4051098D1*
X1088613D1*
Y4020954D1*
X1098661Y4036739D2*
X1108709Y4020954D1*
X1125135Y4051065D2*
X1120858Y4049639D1*
X1119398Y4046787D1*
Y4043902D1*
X1120858Y4041050D1*
X1123709Y4039591D1*
X1129446Y4038165D1*
X1133757Y4036739D1*
X1136609Y4033854D1*
X1138035Y4031002D1*
Y4026691D1*
X1136609Y4023839D1*
X1135183Y4022380D1*
X1130872Y4020954D1*
X1125135D1*
X1120858Y4022380D1*
X1119398Y4023839D1*
X1117973Y4026691D1*
Y4031002D1*
X1119398Y4033854D1*
X1122284Y4036739D1*
X1126561Y4038165D1*
X1132298Y4039591D1*
X1135183Y4041050D1*
X1136609Y4043902D1*
Y4046787D1*
X1135183Y4049639D1*
X1130872Y4051065D1*
X1125135D1*
X1183060Y4086739D2*
X1195960D1*
X1200271Y4088198D1*
X1201730Y4089624D1*
X1203156Y4092476D1*
Y4095361D1*
X1201730Y4098213D1*
X1200271Y4099672D1*
X1195960Y4101098D1*
X1183060D1*
Y4070954D1*
X1193108Y4086739D2*
X1203156Y4070954D1*
X1231090Y4091050D2*
X1229630Y4086739D1*
X1226779Y4083854D1*
X1222468Y4082428D1*
X1221042D1*
X1216731Y4083854D1*
X1213879Y4086739D1*
X1212420Y4091050D1*
Y4092476D1*
X1213879Y4096787D1*
X1216731Y4099639D1*
X1221042Y4101065D1*
X1222468D1*
X1226779Y4099639D1*
X1229630Y4096787D1*
X1231090Y4091050D1*
Y4083854D1*
X1229630Y4076691D1*
X1226779Y4072380D1*
X1222468Y4070954D1*
X1219616D1*
X1215305Y4072380D1*
X1213879Y4075265D1*
X1183749Y4161705D2*
Y4174605D1*
X1182290Y4178916D1*
X1180864Y4180375D1*
X1178012Y4181801D1*
X1175127D1*
X1172275Y4180375D1*
X1170816Y4178916D1*
X1169390Y4174605D1*
Y4161705D1*
X1199534D1*
X1183749Y4171753D2*
X1199534Y4181801D1*
X1175161Y4191065D2*
X1173701Y4193950D1*
X1169424Y4198261D1*
X1199534D1*
X1169424Y4216146D2*
X1170849Y4211835D1*
X1175161Y4208950D1*
X1182323Y4207524D1*
X1186634D1*
X1193797Y4208950D1*
X1198108Y4211835D1*
X1199534Y4216146D1*
Y4218998D1*
X1198108Y4223309D1*
X1193797Y4226161D1*
X1186634Y4227620D1*
X1182323D1*
X1175160Y4226161D1*
X1170849Y4223309D1*
X1169424Y4218998D1*
Y4216146D1*
X1175160Y4226161D2*
X1193797Y4208950D1*
X792833Y3761237D2*
Y3774136D1*
X791374Y3778447D1*
X789948Y3779907D1*
X787096Y3781333D1*
X784211D1*
X781359Y3779907D1*
X779900Y3778447D1*
X778474Y3774136D1*
Y3761237D1*
X808618D1*
X792833Y3771285D2*
X808618Y3781332D1*
X784244Y3790596D2*
X782785Y3793481D1*
X778508Y3797792D1*
X808618D1*
X784244Y3807056D2*
X782785Y3809941D1*
X778508Y3814252D1*
X808618D1*
X427217Y1569268D2*
X440117D1*
X444428Y1570727D1*
X445887Y1572153D1*
X447313Y1575005D1*
Y1577890D1*
X445887Y1580742D1*
X444428Y1582201D1*
X440117Y1583627D1*
X427217D1*
Y1553483D1*
X437265Y1569268D2*
X447313Y1553483D1*
X456576Y1577857D2*
X459462Y1579316D1*
X463773Y1583594D1*
Y1553483D1*
X474495Y1576431D2*
Y1577857D1*
X475921Y1580742D1*
X477347Y1582168D1*
X480232Y1583594D1*
X485969D1*
X488821Y1582168D1*
X490247Y1580742D1*
X491706Y1577857D1*
Y1575005D1*
X490247Y1572120D1*
X487395Y1567842D1*
X473036Y1553483D1*
X493132D1*
X868100Y3471057D2*
Y3483957D1*
X866641Y3488268D1*
X865215Y3489727D1*
X862363Y3491153D1*
X859478D1*
X856626Y3489727D1*
X855167Y3488268D1*
X853741Y3483957D1*
Y3471057D1*
X883885D1*
X868100Y3481105D2*
X883885Y3491153D1*
X859511Y3500416D2*
X858052Y3503302D1*
X853774Y3507613D1*
X883885Y3507612D1*
X853774Y3519761D2*
Y3535513D1*
X865248Y3526924D1*
Y3531235D1*
X866674Y3534087D1*
X868100Y3535513D1*
X872411Y3536972D1*
X875263D1*
X879574Y3535513D1*
X882459Y3532661D1*
X883885Y3528350D1*
Y3524039D1*
X882459Y3519761D1*
X881000Y3518335D1*
X878148Y3516876D1*
X443100Y2506022D2*
Y2518922D1*
X441641Y2523233D1*
X440215Y2524692D1*
X437363Y2526118D1*
X434478D1*
X431626Y2524692D1*
X430167Y2523233D1*
X428741Y2518922D1*
Y2506022D1*
X458885D1*
X443100Y2516070D2*
X458885Y2526118D1*
X434511Y2535382D2*
X433052Y2538267D1*
X428774Y2542578D1*
X458885D1*
Y2566201D2*
X428774D1*
X448837Y2551842D1*
Y2573363D1*
X818100Y1781735D2*
Y1794635D1*
X816641Y1798946D1*
X815215Y1800405D1*
X812363Y1801831D1*
X809478D1*
X806626Y1800405D1*
X805167Y1798946D1*
X803741Y1794635D1*
Y1781735D1*
X833885D1*
X818100Y1791783D2*
X833885Y1801831D1*
X809511Y1811095D2*
X808052Y1813980D1*
X803774Y1818291D1*
X833885D1*
X803774Y1844765D2*
Y1830440D1*
X816674Y1829014D1*
X815248Y1830440D1*
X813789Y1834751D1*
Y1839028D1*
X815248Y1843340D1*
X818100Y1846225D1*
X822411Y1847651D1*
X825263D1*
X829574Y1846225D1*
X832459Y1843339D1*
X833885Y1839028D1*
Y1834751D1*
X832459Y1830440D1*
X831000Y1829014D1*
X828148Y1827555D1*
X543100Y2507465D2*
Y2520365D1*
X541641Y2524676D1*
X540215Y2526135D1*
X537363Y2527561D1*
X534478D1*
X531626Y2526135D1*
X530167Y2524676D1*
X528741Y2520365D1*
Y2507465D1*
X558885D1*
X543100Y2517513D2*
X558885Y2527561D1*
X534511Y2536825D2*
X533052Y2539710D1*
X528774Y2544021D1*
X558885D1*
X533052Y2570495D2*
X530200Y2569069D1*
X528774Y2564758D1*
Y2561906D1*
X530200Y2557595D1*
X534511Y2554710D1*
X541674Y2553284D1*
X548837D1*
X554574Y2554710D1*
X557459Y2557595D1*
X558885Y2561906D1*
Y2563332D1*
X557459Y2567610D1*
X554574Y2570495D1*
X550263Y2571921D1*
X548837D1*
X544526Y2570495D1*
X541674Y2567610D1*
X540248Y2563332D1*
Y2561906D1*
X541674Y2557595D1*
X544526Y2554710D1*
X548837Y2553284D1*
X811850Y3331735D2*
Y3344635D1*
X810391Y3348946D1*
X808965Y3350405D1*
X806113Y3351831D1*
X803228D1*
X800376Y3350405D1*
X798917Y3348946D1*
X797491Y3344635D1*
Y3331735D1*
X827635D1*
X811850Y3341783D2*
X827635Y3351831D1*
X803262Y3361095D2*
X801802Y3363980D1*
X797525Y3368291D1*
X827635D1*
Y3383291D2*
X797525Y3397651D1*
Y3377555D1*
X636848Y1619235D2*
Y1632135D1*
X635389Y1636446D1*
X633963Y1637905D1*
X631111Y1639331D1*
X628226D1*
X625374Y1637905D1*
X623915Y1636446D1*
X622489Y1632135D1*
Y1619235D1*
X652633D1*
X636848Y1629283D2*
X652633Y1639331D1*
X629685Y1650054D2*
X628259D1*
X625374Y1651480D1*
X623948Y1652906D1*
X622522Y1655791D1*
Y1661528D1*
X623948Y1664380D1*
X625374Y1665806D1*
X628259Y1667265D1*
X631111D1*
X633996Y1665806D1*
X638274Y1662954D1*
X652633Y1648595D1*
Y1668691D1*
X628259Y1677954D2*
X626800Y1680840D1*
X622522Y1685151D1*
X652633D1*
X536846Y1612785D2*
Y1625685D1*
X535387Y1629996D1*
X533961Y1631456D1*
X531110Y1632881D1*
X528224D1*
X525373Y1631456D1*
X523913Y1629996D1*
X522487Y1625685D1*
Y1612785D1*
X552631D1*
X536846Y1622833D2*
X552631Y1632881D1*
X529684Y1643604D2*
X528258D1*
X525373Y1645030D1*
X523947Y1646456D1*
X522521Y1649341D1*
Y1655078D1*
X523947Y1657930D1*
X525373Y1659356D1*
X528258Y1660815D1*
X531110D1*
X533995Y1659356D1*
X538272Y1656504D1*
X552631Y1642145D1*
Y1662241D1*
X529684Y1672964D2*
X528258D1*
X525373Y1674390D1*
X523947Y1675816D1*
X522521Y1678701D1*
Y1684438D1*
X523947Y1687289D1*
X525373Y1688715D1*
X528258Y1690175D1*
X531110D1*
X533995Y1688715D1*
X538272Y1685864D1*
X552631Y1671504D1*
Y1691600D1*
X1243100Y1087785D2*
Y1100685D1*
X1241641Y1104996D1*
X1240215Y1106456D1*
X1237363Y1107881D1*
X1234478D1*
X1231626Y1106456D1*
X1230167Y1104996D1*
X1228741Y1100685D1*
Y1087785D1*
X1258885D1*
X1243100Y1097833D2*
X1258885Y1107881D1*
X1235937Y1118604D2*
X1234511D1*
X1231626Y1120030D1*
X1230200Y1121456D1*
X1228774Y1124341D1*
Y1130078D1*
X1230200Y1132930D1*
X1231626Y1134356D1*
X1234511Y1135815D1*
X1237363D1*
X1240248Y1134356D1*
X1244526Y1131504D1*
X1258885Y1117145D1*
Y1137241D1*
X1228774Y1149390D2*
Y1165141D1*
X1240248Y1156552D1*
Y1160864D1*
X1241674Y1163715D1*
X1243100Y1165141D1*
X1247411Y1166600D1*
X1250263D1*
X1254574Y1165141D1*
X1257459Y1162289D1*
X1258885Y1157978D1*
Y1153667D1*
X1257459Y1149390D1*
X1256000Y1147964D1*
X1253148Y1146504D1*
X1143100Y1087073D2*
Y1099972D1*
X1141641Y1104283D1*
X1140215Y1105743D1*
X1137363Y1107168D1*
X1134478D1*
X1131626Y1105743D1*
X1130167Y1104283D1*
X1128741Y1099972D1*
Y1087073D1*
X1158885D1*
X1143100Y1097121D2*
X1158885Y1107168D1*
X1135937Y1117891D2*
X1134511D1*
X1131626Y1119317D1*
X1130200Y1120743D1*
X1128774Y1123628D1*
Y1129365D1*
X1130200Y1132217D1*
X1131626Y1133643D1*
X1134511Y1135102D1*
X1137363D1*
X1140248Y1133643D1*
X1144526Y1130791D1*
X1158885Y1116432D1*
Y1136528D1*
Y1160151D2*
X1128774D1*
X1148837Y1145792D1*
Y1167313D1*
X870767Y1569268D2*
X883667D1*
X887978Y1570727D1*
X889437Y1572153D1*
X890863Y1575005D1*
Y1577890D1*
X889437Y1580742D1*
X887978Y1582201D1*
X883667Y1583627D1*
X870767D1*
Y1553483D1*
X880815Y1569268D2*
X890863Y1553483D1*
X901586Y1576431D2*
Y1577857D1*
X903012Y1580742D1*
X904438Y1582168D1*
X907323Y1583594D1*
X913060D1*
X915912Y1582168D1*
X917337Y1580742D1*
X918797Y1577857D1*
Y1575005D1*
X917337Y1572120D1*
X914486Y1567842D1*
X900127Y1553483D1*
X920223D1*
X946697Y1583594D2*
X932371D1*
X930945Y1570694D1*
X932371Y1572120D1*
X936682Y1573579D1*
X940960D1*
X945271Y1572120D1*
X948156Y1569268D1*
X949582Y1564957D1*
Y1562105D1*
X948156Y1557794D1*
X945271Y1554909D1*
X940960Y1553483D1*
X936682D1*
X932371Y1554909D1*
X930945Y1556368D1*
X929486Y1559220D1*
X943100Y1090335D2*
Y1103235D1*
X941641Y1107546D1*
X940215Y1109005D1*
X937363Y1110431D1*
X934478D1*
X931626Y1109005D1*
X930167Y1107546D1*
X928741Y1103235D1*
Y1090335D1*
X958885D1*
X943100Y1100383D2*
X958885Y1110431D1*
X935937Y1121154D2*
X934511D1*
X931626Y1122580D1*
X930200Y1124006D1*
X928774Y1126891D1*
Y1132628D1*
X930200Y1135480D1*
X931626Y1136906D1*
X934511Y1138365D1*
X937363D1*
X940248Y1136906D1*
X944526Y1134054D1*
X958885Y1119695D1*
Y1139791D1*
X933052Y1166265D2*
X930200Y1164839D1*
X928774Y1160528D1*
Y1157676D1*
X930200Y1153365D1*
X934511Y1150480D1*
X941674Y1149054D1*
X948837D1*
X954574Y1150480D1*
X957459Y1153365D1*
X958885Y1157676D1*
Y1159102D1*
X957459Y1163380D1*
X954574Y1166265D1*
X950263Y1167691D1*
X948837D1*
X944526Y1166265D1*
X941674Y1163380D1*
X940248Y1159102D1*
Y1157676D1*
X941674Y1153365D1*
X944526Y1150480D1*
X948837Y1149054D1*
X693100Y1087785D2*
Y1100685D1*
X691641Y1104996D1*
X690215Y1106456D1*
X687363Y1107881D1*
X684478D1*
X681626Y1106456D1*
X680167Y1104996D1*
X678741Y1100685D1*
Y1087785D1*
X708885D1*
X693100Y1097833D2*
X708885Y1107881D1*
X685937Y1118604D2*
X684511D1*
X681626Y1120030D1*
X680200Y1121456D1*
X678774Y1124341D1*
Y1130078D1*
X680200Y1132930D1*
X681626Y1134356D1*
X684511Y1135815D1*
X687363D1*
X690248Y1134356D1*
X694526Y1131504D1*
X708885Y1117145D1*
Y1137241D1*
Y1152241D2*
X678774Y1166600D1*
Y1146505D1*
X468100Y1087802D2*
Y1100702D1*
X466641Y1105013D1*
X465215Y1106472D1*
X462363Y1107898D1*
X459478D1*
X456626Y1106472D1*
X455167Y1105013D1*
X453741Y1100702D1*
Y1087802D1*
X483885D1*
X468100Y1097850D2*
X483885Y1107898D1*
X460937Y1118621D2*
X459511D1*
X456626Y1120047D1*
X455200Y1121473D1*
X453774Y1124358D1*
Y1130095D1*
X455200Y1132947D1*
X456626Y1134372D1*
X459511Y1135832D1*
X462363D1*
X465248Y1134372D1*
X469526Y1131521D1*
X483885Y1117162D1*
Y1137258D1*
X453774Y1153684D2*
X455200Y1149406D1*
X458052Y1147947D1*
X460937D1*
X463789Y1149406D1*
X465248Y1152258D1*
X466674Y1157995D1*
X468100Y1162306D1*
X470985Y1165158D1*
X473837Y1166584D1*
X478148D1*
X481000Y1165158D1*
X482459Y1163732D1*
X483885Y1159421D1*
Y1153684D1*
X482459Y1149406D1*
X481000Y1147947D1*
X478148Y1146521D1*
X473837D1*
X470985Y1147947D1*
X468100Y1150832D1*
X466674Y1155110D1*
X465248Y1160847D1*
X463789Y1163732D1*
X460937Y1165158D1*
X458052D1*
X455200Y1163732D1*
X453774Y1159421D1*
Y1153684D1*
X818100Y1088498D2*
Y1101398D1*
X816641Y1105709D1*
X815215Y1107168D1*
X812363Y1108594D1*
X809478D1*
X806626Y1107168D1*
X805167Y1105709D1*
X803741Y1101398D1*
Y1088498D1*
X833885D1*
X818100Y1098546D2*
X833885Y1108594D1*
X810937Y1119317D2*
X809511D1*
X806626Y1120743D1*
X805200Y1122169D1*
X803774Y1125054D1*
Y1130791D1*
X805200Y1133643D1*
X806626Y1135069D1*
X809511Y1136528D1*
X812363D1*
X815248Y1135069D1*
X819526Y1132217D1*
X833885Y1117858D1*
Y1137954D1*
X813789Y1165888D2*
X818100Y1164428D1*
X820985Y1161576D1*
X822411Y1157265D1*
Y1155840D1*
X820985Y1151528D1*
X818100Y1148677D1*
X813789Y1147217D1*
X812363D1*
X808052Y1148677D1*
X805200Y1151529D1*
X803774Y1155840D1*
Y1157265D1*
X805200Y1161576D1*
X808052Y1164428D1*
X813789Y1165888D1*
X820985Y1165887D1*
X828148Y1164428D1*
X832459Y1161576D1*
X833885Y1157265D1*
Y1154414D1*
X832459Y1150103D1*
X829574Y1148677D1*
X1849349Y1119032D2*
Y1131932D1*
X1847890Y1136243D1*
X1846464Y1137702D1*
X1843612Y1139128D1*
X1840727D1*
X1837875Y1137702D1*
X1836416Y1136243D1*
X1834990Y1131932D1*
Y1119032D1*
X1865134D1*
X1849349Y1129080D2*
X1865134Y1139128D1*
X1835023Y1151277D2*
Y1167029D1*
X1846497Y1158440D1*
Y1162751D1*
X1847923Y1165603D1*
X1849349Y1167029D1*
X1853660Y1168488D1*
X1856512D1*
X1860823Y1167029D1*
X1863708Y1164177D1*
X1865134Y1159866D1*
Y1155555D1*
X1863708Y1151277D1*
X1862249Y1149851D1*
X1859397Y1148392D1*
X1835023Y1186373D2*
X1836449Y1182062D1*
X1840760Y1179177D1*
X1847923Y1177751D1*
X1852234D1*
X1859397Y1179177D1*
X1863708Y1182062D1*
X1865134Y1186373D1*
Y1189225D1*
X1863708Y1193536D1*
X1859397Y1196388D1*
X1852234Y1197847D1*
X1847923D1*
X1840760Y1196388D1*
X1836449Y1193536D1*
X1835023Y1189225D1*
Y1186373D1*
X1840760Y1196388D2*
X1859397Y1179177D1*
X1145968Y1750517D2*
X1158868D1*
X1163179Y1751976D1*
X1164638Y1753402D1*
X1166064Y1756254D1*
Y1759139D1*
X1164638Y1761991D1*
X1163179Y1763450D1*
X1158868Y1764876D1*
X1145968D1*
Y1734732D1*
X1156016Y1750517D2*
X1166064Y1734732D1*
X1178212Y1764843D2*
X1193964D1*
X1185375Y1753369D1*
X1189686D1*
X1192538Y1751943D1*
X1193964Y1750517D1*
X1195423Y1746206D1*
Y1743354D1*
X1193964Y1739043D1*
X1191112Y1736158D1*
X1186801Y1734732D1*
X1182490D1*
X1178212Y1736158D1*
X1176786Y1737617D1*
X1175327Y1740469D1*
X1204687Y1759106D2*
X1207572Y1760565D1*
X1211883Y1764843D1*
Y1734732D1*
X1245768Y1569268D2*
X1258668D1*
X1262979Y1570727D1*
X1264438Y1572153D1*
X1265864Y1575005D1*
Y1577890D1*
X1264438Y1580742D1*
X1262979Y1582201D1*
X1258668Y1583627D1*
X1245768D1*
Y1553483D1*
X1255816Y1569268D2*
X1265864Y1553483D1*
X1278013Y1583594D2*
X1293765D1*
X1285176Y1572120D1*
X1289487D1*
X1292339Y1570694D1*
X1293765Y1569268D1*
X1295224Y1564957D1*
Y1562105D1*
X1293765Y1557794D1*
X1290913Y1554909D1*
X1286602Y1553483D1*
X1282291D1*
X1278013Y1554909D1*
X1276587Y1556368D1*
X1275128Y1559220D1*
X1305947Y1576431D2*
Y1577857D1*
X1307372Y1580742D1*
X1308798Y1582168D1*
X1311683Y1583594D1*
X1317420D1*
X1320272Y1582168D1*
X1321698Y1580742D1*
X1323157Y1577857D1*
Y1575005D1*
X1321698Y1572120D1*
X1318846Y1567842D1*
X1304487Y1553483D1*
X1324583D1*
X961849Y1612785D2*
Y1625685D1*
X960390Y1629996D1*
X958964Y1631456D1*
X956112Y1632881D1*
X953227D1*
X950375Y1631456D1*
X948916Y1629996D1*
X947490Y1625685D1*
Y1612785D1*
X977634D1*
X961849Y1622833D2*
X977634Y1632881D1*
X947523Y1645030D2*
Y1660782D1*
X958997Y1652193D1*
Y1656504D1*
X960423Y1659356D1*
X961849Y1660782D1*
X966160Y1662241D1*
X969012D1*
X973323Y1660782D1*
X976208Y1657930D1*
X977634Y1653619D1*
Y1649308D1*
X976208Y1645030D1*
X974749Y1643604D1*
X971897Y1642145D1*
X947523Y1674390D2*
Y1690141D1*
X958997Y1681552D1*
Y1685864D1*
X960423Y1688715D1*
X961849Y1690141D1*
X966160Y1691600D1*
X969012D1*
X973323Y1690141D1*
X976208Y1687289D1*
X977634Y1682978D1*
Y1678667D1*
X976208Y1674390D1*
X974749Y1672964D1*
X971897Y1671504D1*
X1351303Y1733588D2*
X1364203D1*
X1368514Y1735047D1*
X1369973Y1736473D1*
X1371399Y1739325D1*
Y1742210D1*
X1369973Y1745062D1*
X1368514Y1746521D1*
X1364203Y1747947D1*
X1351303D1*
Y1717803D1*
X1361351Y1733588D2*
X1371399Y1717803D1*
X1383548Y1747914D2*
X1399300D1*
X1390711Y1736440D1*
X1395022D1*
X1397874Y1735014D1*
X1399300Y1733588D1*
X1400759Y1729277D1*
Y1726425D1*
X1399300Y1722114D1*
X1396448Y1719229D1*
X1392137Y1717803D1*
X1387826D1*
X1383548Y1719229D1*
X1382122Y1720688D1*
X1380663Y1723540D1*
X1424381Y1717803D2*
Y1747914D1*
X1410022Y1727851D1*
X1431544D1*
X1355600Y1089606D2*
Y1102506D1*
X1354141Y1106817D1*
X1352715Y1108276D1*
X1349863Y1109702D1*
X1346978D1*
X1344126Y1108276D1*
X1342667Y1106817D1*
X1341241Y1102506D1*
Y1089606D1*
X1371385D1*
X1355600Y1099654D2*
X1371385Y1109702D1*
X1341274Y1121850D2*
Y1137602D1*
X1352748Y1129013D1*
Y1133324D1*
X1354174Y1136176D1*
X1355600Y1137602D1*
X1359911Y1139061D1*
X1362763D1*
X1367074Y1137602D1*
X1369959Y1134750D1*
X1371385Y1130439D1*
Y1126128D1*
X1369959Y1121850D1*
X1368500Y1120424D1*
X1365648Y1118965D1*
X1341274Y1165536D2*
Y1151210D1*
X1354174Y1149784D1*
X1352748Y1151210D1*
X1351289Y1155521D1*
Y1159799D1*
X1352748Y1164110D1*
X1355600Y1166995D1*
X1359911Y1168421D1*
X1362763D1*
X1367074Y1166995D1*
X1369959Y1164110D1*
X1371385Y1159799D1*
Y1155521D1*
X1369959Y1151210D1*
X1368500Y1149784D1*
X1365648Y1148325D1*
X1677746Y1575518D2*
X1690646D1*
X1694957Y1576978D1*
X1696416Y1578403D1*
X1697842Y1581255D1*
Y1584140D1*
X1696416Y1586992D1*
X1694957Y1588451D1*
X1690646Y1589877D1*
X1677746D1*
Y1559733D1*
X1687794Y1575518D2*
X1697842Y1559733D1*
X1709991Y1589844D2*
X1725742D1*
X1717153Y1578370D1*
X1721464D1*
X1724316Y1576944D1*
X1725742Y1575518D1*
X1727201Y1571207D1*
Y1568355D1*
X1725742Y1564044D1*
X1722890Y1561159D1*
X1718579Y1559733D1*
X1714268D1*
X1709991Y1561159D1*
X1708565Y1562618D1*
X1707105Y1565470D1*
X1753676Y1585566D2*
X1752250Y1588418D1*
X1747939Y1589844D1*
X1745087D1*
X1740776Y1588418D1*
X1737891Y1584107D1*
X1736465Y1576944D1*
Y1569781D1*
X1737891Y1564044D1*
X1740776Y1561159D1*
X1745087Y1559733D1*
X1746513D1*
X1750791Y1561159D1*
X1753676Y1564044D1*
X1755102Y1568355D1*
Y1569781D1*
X1753676Y1574092D1*
X1750791Y1576944D1*
X1746513Y1578370D1*
X1745087D1*
X1740776Y1576944D1*
X1737891Y1574092D1*
X1736465Y1569781D1*
X1661849Y1087785D2*
Y1100685D1*
X1660390Y1104996D1*
X1658964Y1106456D1*
X1656112Y1107881D1*
X1653227D1*
X1650375Y1106456D1*
X1648916Y1104996D1*
X1647490Y1100685D1*
Y1087785D1*
X1677634D1*
X1661849Y1097833D2*
X1677634Y1107881D1*
X1647523Y1120030D2*
Y1135782D1*
X1658997Y1127193D1*
Y1131504D1*
X1660423Y1134356D1*
X1661849Y1135782D1*
X1666160Y1137241D1*
X1669012D1*
X1673323Y1135782D1*
X1676208Y1132930D1*
X1677634Y1128619D1*
Y1124308D1*
X1676208Y1120030D1*
X1674749Y1118604D1*
X1671897Y1117145D1*
X1677634Y1152241D2*
X1647523Y1166600D1*
Y1146505D1*
X1558284Y1738018D2*
X1571183D1*
X1575495Y1739478D1*
X1576954Y1740903D1*
X1578380Y1743755D1*
Y1746640D1*
X1576954Y1749492D1*
X1575495Y1750951D1*
X1571183Y1752377D1*
X1558284D1*
Y1722233D1*
X1568332Y1738018D2*
X1578380Y1722233D1*
X1590528Y1752344D2*
X1606280D1*
X1597691Y1740870D1*
X1602002D1*
X1604854Y1739444D1*
X1606280Y1738018D1*
X1607739Y1733707D1*
Y1730855D1*
X1606280Y1726544D1*
X1603428Y1723659D1*
X1599117Y1722233D1*
X1594806D1*
X1590528Y1723659D1*
X1589102Y1725118D1*
X1587643Y1727970D1*
X1624166Y1752344D2*
X1619888Y1750918D1*
X1618429Y1748066D1*
Y1745181D1*
X1619888Y1742329D1*
X1622740Y1740870D1*
X1628477Y1739444D1*
X1632788Y1738018D1*
X1635640Y1735133D1*
X1637066Y1732281D1*
Y1727970D1*
X1635640Y1725118D1*
X1634214Y1723659D1*
X1629903Y1722233D1*
X1624166D1*
X1619888Y1723659D1*
X1618429Y1725118D1*
X1617003Y1727970D1*
Y1732281D1*
X1618429Y1735133D1*
X1621314Y1738018D1*
X1625592Y1739444D1*
X1631329Y1740870D1*
X1634214Y1742329D1*
X1635640Y1745181D1*
Y1748066D1*
X1634214Y1750918D1*
X1629903Y1752344D1*
X1624166D1*
X1561849Y1088498D2*
Y1101398D1*
X1560390Y1105709D1*
X1558964Y1107168D1*
X1556112Y1108594D1*
X1553227D1*
X1550375Y1107168D1*
X1548916Y1105709D1*
X1547490Y1101398D1*
Y1088498D1*
X1577634D1*
X1561849Y1098546D2*
X1577634Y1108594D1*
X1547523Y1120743D2*
Y1136495D1*
X1558997Y1127906D1*
Y1132217D1*
X1560423Y1135069D1*
X1561849Y1136495D1*
X1566160Y1137954D1*
X1569012D1*
X1573323Y1136495D1*
X1576208Y1133643D1*
X1577634Y1129332D1*
Y1125021D1*
X1576208Y1120743D1*
X1574749Y1119317D1*
X1571897Y1117858D1*
X1557538Y1165888D2*
X1561849Y1164428D1*
X1564734Y1161576D1*
X1566160Y1157265D1*
Y1155840D1*
X1564734Y1151528D1*
X1561849Y1148677D1*
X1557538Y1147217D1*
X1556112D1*
X1551801Y1148677D1*
X1548949Y1151529D1*
X1547523Y1155840D1*
Y1157265D1*
X1548949Y1161576D1*
X1551801Y1164428D1*
X1557538Y1165888D1*
X1564734Y1165887D1*
X1571897Y1164428D1*
X1576208Y1161576D1*
X1577634Y1157265D1*
Y1154414D1*
X1576208Y1150103D1*
X1573323Y1148677D1*
X1199350Y2526394D2*
Y2539294D1*
X1197891Y2543605D1*
X1196465Y2545064D1*
X1193613Y2546490D1*
X1190728D1*
X1187876Y2545064D1*
X1186417Y2543605D1*
X1184991Y2539294D1*
Y2526394D1*
X1215135D1*
X1199350Y2536442D2*
X1215135Y2546490D1*
Y2570112D2*
X1185025Y2570113D1*
X1205087Y2555754D1*
Y2577275D1*
X1185025Y2595161D2*
X1186451Y2590850D1*
X1190762Y2587965D1*
X1197924Y2586539D1*
X1202235D1*
X1209398Y2587965D1*
X1213709Y2590850D1*
X1215135Y2595161D1*
Y2598013D1*
X1213709Y2602324D1*
X1209398Y2605176D1*
X1202235Y2606635D1*
X1197924D1*
X1190762Y2605176D1*
X1186451Y2602324D1*
X1185025Y2598013D1*
Y2595161D1*
X1190762Y2605176D2*
X1209398Y2587965D1*
X1355598Y2532844D2*
Y2545744D1*
X1354139Y2550055D1*
X1352713Y2551514D1*
X1349861Y2552940D1*
X1346976D1*
X1344125Y2551514D1*
X1342665Y2550055D1*
X1341239Y2545744D1*
Y2532844D1*
X1371383D1*
X1355598Y2542892D2*
X1371383Y2552940D1*
Y2576562D2*
X1341273D1*
X1361335Y2562203D1*
Y2583725D1*
X1347010Y2592989D2*
X1345550Y2595874D1*
X1341273Y2600185D1*
X1371383D1*
X1824349Y883373D2*
Y896273D1*
X1822890Y900584D1*
X1821464Y902043D1*
X1818612Y903469D1*
X1815727D1*
X1812875Y902043D1*
X1811416Y900584D1*
X1809990Y896273D1*
Y883373D1*
X1840134D1*
X1824349Y893421D2*
X1840134Y903469D1*
Y927091D2*
X1810023D1*
X1830086Y912732D1*
Y934254D1*
X1814301Y960729D2*
X1811449Y959303D1*
X1810023Y954992D1*
Y952140D1*
X1811449Y947829D1*
X1815760Y944944D1*
X1822923Y943518D1*
X1830086D1*
X1835823Y944944D1*
X1838708Y947829D1*
X1840134Y952140D1*
Y953566D1*
X1838708Y957844D1*
X1835823Y960729D1*
X1831512Y962155D1*
X1830086D1*
X1825775Y960729D1*
X1822923Y957844D1*
X1821497Y953566D1*
Y952140D1*
X1822923Y947829D1*
X1825775Y944944D1*
X1830086Y943518D1*
X1830600Y695143D2*
Y708043D1*
X1829141Y712354D1*
X1827715Y713813D1*
X1824863Y715239D1*
X1821978D1*
X1819126Y713813D1*
X1817667Y712354D1*
X1816241Y708043D1*
Y695143D1*
X1846385D1*
X1830600Y705191D2*
X1846385Y715239D1*
Y738862D2*
X1816274D1*
X1836337Y724503D1*
Y746025D1*
X1846385Y761025D2*
X1816274Y775384D1*
Y755288D1*
X776321Y494268D2*
X789221D1*
X793532Y495727D1*
X794991Y497153D1*
X796417Y500005D1*
Y502890D1*
X794991Y505742D1*
X793532Y507201D1*
X789221Y508627D1*
X776321D1*
Y478483D1*
X786369Y494268D2*
X796417Y478483D1*
X820040D2*
Y508594D1*
X805681Y488531D1*
X827203D1*
X843629Y508594D2*
X839351Y507168D1*
X837892Y504316D1*
Y501431D1*
X839351Y498579D1*
X842203Y497120D1*
X847940Y495694D1*
X852251Y494268D1*
X855103Y491383D1*
X856529Y488531D1*
Y484220D1*
X855103Y481368D1*
X853677Y479909D1*
X849366Y478483D1*
X843629D1*
X839351Y479909D1*
X837892Y481368D1*
X836466Y484220D1*
Y488531D1*
X837892Y491383D1*
X840777Y494268D1*
X845055Y495694D1*
X850792Y497120D1*
X853677Y498579D1*
X855103Y501431D1*
Y504316D1*
X853677Y507168D1*
X849366Y508594D1*
X843629D1*
X436417Y799238D2*
X449317D1*
X453628Y800697D1*
X455087Y802123D1*
X456513Y804975D1*
Y807860D1*
X455087Y810712D1*
X453628Y812171D1*
X449317Y813597D1*
X436417D1*
Y783453D1*
X446465Y799238D2*
X456513Y783453D1*
X480135D2*
Y813563D1*
X465776Y793501D1*
X487298D1*
X515232Y803549D2*
X513773Y799238D1*
X510921Y796352D1*
X506610Y794927D1*
X505184D1*
X500873Y796352D1*
X498021Y799238D1*
X496562Y803549D1*
Y804975D1*
X498021Y809286D1*
X500873Y812137D1*
X505184Y813563D1*
X506610D1*
X510921Y812137D1*
X513773Y809286D1*
X515232Y803549D1*
Y796352D1*
X513773Y789190D1*
X510921Y784879D1*
X506610Y783453D1*
X503758D1*
X499447Y784879D1*
X498021Y787764D1*
X1205166Y1886739D2*
X1218066D1*
X1222377Y1888198D1*
X1223836Y1889624D1*
X1225262Y1892476D1*
Y1895361D1*
X1223836Y1898213D1*
X1222377Y1899672D1*
X1218066Y1901098D1*
X1205166D1*
Y1870954D1*
X1215214Y1886739D2*
X1225262Y1870954D1*
X1251736Y1901065D2*
X1237411D1*
X1235985Y1888165D1*
X1237411Y1889591D1*
X1241722Y1891050D1*
X1245999D1*
X1250310Y1889591D1*
X1253196Y1886739D1*
X1254621Y1882428D1*
Y1879576D1*
X1253196Y1875265D1*
X1250310Y1872380D1*
X1245999Y1870954D1*
X1241722D1*
X1237411Y1872380D1*
X1235985Y1873839D1*
X1234525Y1876691D1*
X1272507Y1901065D2*
X1268196Y1899639D1*
X1265311Y1895328D1*
X1263885Y1888165D1*
Y1883854D1*
X1265311Y1876691D1*
X1268196Y1872380D1*
X1272507Y1870954D1*
X1275359D1*
X1279670Y1872380D1*
X1282522Y1876691D1*
X1283981Y1883854D1*
Y1888165D1*
X1282522Y1895328D1*
X1279670Y1899639D1*
X1275359Y1901065D1*
X1272507D1*
X1282522Y1895328D2*
X1265311Y1876691D1*
X444688Y899239D2*
X457588D1*
X461899Y900698D1*
X463358Y902124D1*
X464784Y904976D1*
Y907861D1*
X463358Y910713D1*
X461899Y912172D1*
X457588Y913598D1*
X444688D1*
Y883454D1*
X454736Y899239D2*
X464784Y883454D1*
X491259Y913565D2*
X476933D1*
X475507Y900665D1*
X476933Y902091D1*
X481244Y903550D1*
X485522D1*
X489833Y902091D1*
X492718Y899239D1*
X494144Y894928D1*
Y892076D1*
X492718Y887765D1*
X489833Y884880D1*
X485522Y883454D1*
X481244D1*
X476933Y884880D1*
X475507Y886339D1*
X474048Y889191D1*
X503407Y907828D2*
X506292Y909287D1*
X510603Y913565D1*
Y883454D1*
X1018100Y650285D2*
Y663185D1*
X1016641Y667496D1*
X1015215Y668956D1*
X1012363Y670381D1*
X1009478D1*
X1006626Y668956D1*
X1005167Y667496D1*
X1003741Y663185D1*
Y650285D1*
X1033885D1*
X1018100Y660333D2*
X1033885Y670381D1*
X1003774Y696856D2*
Y682530D1*
X1016674Y681104D1*
X1015248Y682530D1*
X1013789Y686841D1*
Y691119D1*
X1015248Y695430D1*
X1018100Y698315D1*
X1022411Y699741D1*
X1025263D1*
X1029574Y698315D1*
X1032459Y695430D1*
X1033885Y691119D1*
Y686841D1*
X1032459Y682530D1*
X1031000Y681104D1*
X1028148Y679645D1*
X1010937Y710464D2*
X1009511D1*
X1006626Y711890D1*
X1005200Y713316D1*
X1003774Y716201D1*
Y721938D1*
X1005200Y724789D1*
X1006626Y726215D1*
X1009511Y727675D1*
X1012363D1*
X1015248Y726215D1*
X1019526Y723364D1*
X1033885Y709004D1*
Y729100D1*
X1636849Y537785D2*
Y550685D1*
X1635390Y554996D1*
X1633964Y556456D1*
X1631112Y557881D1*
X1628227D1*
X1625375Y556456D1*
X1623916Y554996D1*
X1622490Y550685D1*
Y537785D1*
X1652634D1*
X1636849Y547833D2*
X1652634Y557881D1*
X1622523Y584356D2*
Y570030D1*
X1635423Y568604D1*
X1633997Y570030D1*
X1632538Y574341D1*
Y578619D1*
X1633997Y582930D1*
X1636849Y585815D1*
X1641160Y587241D1*
X1644012D1*
X1648323Y585815D1*
X1651208Y582930D1*
X1652634Y578619D1*
Y574341D1*
X1651208Y570030D1*
X1649749Y568604D1*
X1646897Y567145D1*
X1622523Y599390D2*
Y615141D1*
X1633997Y606552D1*
Y610864D1*
X1635423Y613715D1*
X1636849Y615141D1*
X1641160Y616600D1*
X1644012D1*
X1648323Y615141D1*
X1651208Y612289D1*
X1652634Y607978D1*
Y603667D1*
X1651208Y599390D1*
X1649749Y597964D1*
X1646897Y596504D1*
X1874350Y543322D2*
Y556222D1*
X1872891Y560533D1*
X1871465Y561992D1*
X1868613Y563418D1*
X1865728D1*
X1862876Y561992D1*
X1861417Y560533D1*
X1859991Y556222D1*
Y543322D1*
X1890135D1*
X1874350Y553370D2*
X1890135Y563418D1*
X1860025Y589892D2*
Y575566D1*
X1872924Y574140D1*
X1871499Y575566D1*
X1870039Y579877D1*
Y584155D1*
X1871499Y588466D1*
X1874350Y591351D1*
X1878661Y592777D1*
X1881513D1*
X1885824Y591351D1*
X1888709Y588466D1*
X1890135Y584155D1*
Y579877D1*
X1888709Y575566D1*
X1887250Y574140D1*
X1884398Y572681D1*
X1890135Y616400D2*
X1860025D1*
X1880087Y602041D1*
Y623563D1*
X1395772Y2044266D2*
X1408672D1*
X1412983Y2045726D1*
X1414442Y2047151D1*
X1415868Y2050003D1*
Y2052888D1*
X1414442Y2055740D1*
X1412983Y2057199D1*
X1408672Y2058625D1*
X1395772D1*
Y2028481D1*
X1405820Y2044266D2*
X1415868Y2028481D1*
X1442343Y2058592D2*
X1428017D1*
X1426591Y2045692D1*
X1428017Y2047118D1*
X1432328Y2048577D1*
X1436606D1*
X1440917Y2047118D1*
X1443802Y2044266D1*
X1445228Y2039955D1*
Y2037103D1*
X1443802Y2032792D1*
X1440917Y2029907D1*
X1436606Y2028481D1*
X1432328D1*
X1428017Y2029907D1*
X1426591Y2031367D1*
X1425132Y2034218D1*
X1471702Y2058592D2*
X1457376D1*
X1455950Y2045692D1*
X1457376Y2047118D1*
X1461687Y2048577D1*
X1465965D1*
X1470276Y2047118D1*
X1473161Y2044266D1*
X1474587Y2039955D1*
Y2037103D1*
X1473161Y2032792D1*
X1470276Y2029907D1*
X1465965Y2028481D1*
X1461687D1*
X1457376Y2029907D1*
X1455950Y2031367D1*
X1454491Y2034218D1*
X1445849Y2098822D2*
Y2111722D1*
X1444390Y2116033D1*
X1442964Y2117492D1*
X1440112Y2118918D1*
X1437227D1*
X1434375Y2117492D1*
X1432916Y2116033D1*
X1431490Y2111722D1*
Y2098822D1*
X1461634D1*
X1445849Y2108870D2*
X1461634Y2118918D1*
X1431523Y2145393D2*
Y2131067D1*
X1444423Y2129641D1*
X1442997Y2131067D1*
X1441538Y2135378D1*
Y2139656D1*
X1442997Y2143967D1*
X1445849Y2146852D1*
X1450160Y2148278D1*
X1453012D1*
X1457323Y2146852D1*
X1460208Y2143967D1*
X1461634Y2139656D1*
Y2135378D1*
X1460208Y2131067D1*
X1458749Y2129641D1*
X1455897Y2128182D1*
X1435801Y2174752D2*
X1432949Y2173326D1*
X1431523Y2169015D1*
Y2166163D1*
X1432949Y2161852D1*
X1437260Y2158967D1*
X1444423Y2157541D1*
X1451586D1*
X1457323Y2158967D1*
X1460208Y2161852D1*
X1461634Y2166163D1*
Y2167589D1*
X1460208Y2171867D1*
X1457323Y2174752D1*
X1453012Y2176178D1*
X1451586D1*
X1447275Y2174752D1*
X1444423Y2171867D1*
X1442997Y2167589D1*
Y2166163D1*
X1444423Y2161852D1*
X1447275Y2158967D1*
X1451586Y2157541D1*
X1295767Y669268D2*
X1308667D1*
X1312978Y670727D1*
X1314437Y672153D1*
X1315863Y675005D1*
Y677890D1*
X1314437Y680742D1*
X1312978Y682201D1*
X1308667Y683627D1*
X1295767D1*
Y653483D1*
X1305815Y669268D2*
X1315863Y653483D1*
X1342337Y683594D2*
X1328012D1*
X1326586Y670694D1*
X1328012Y672120D1*
X1332323Y673579D1*
X1336600D1*
X1340912Y672120D1*
X1343797Y669268D1*
X1345223Y664957D1*
Y662105D1*
X1343797Y657794D1*
X1340912Y654909D1*
X1336600Y653483D1*
X1332323D1*
X1328012Y654909D1*
X1326586Y656368D1*
X1325127Y659220D1*
X1360223Y653483D2*
X1374582Y683594D1*
X1354486D1*
X1399349Y537802D2*
Y550702D1*
X1397890Y555013D1*
X1396464Y556472D1*
X1393612Y557898D1*
X1390727D1*
X1387875Y556472D1*
X1386416Y555013D1*
X1384990Y550702D1*
Y537802D1*
X1415134D1*
X1399349Y547850D2*
X1415134Y557898D1*
X1385023Y584372D2*
Y570047D1*
X1397923Y568621D1*
X1396497Y570047D1*
X1395038Y574358D1*
Y578635D1*
X1396497Y582947D1*
X1399349Y585832D1*
X1403660Y587258D1*
X1406512D1*
X1410823Y585832D1*
X1413708Y582946D1*
X1415134Y578635D1*
Y574358D1*
X1413708Y570047D1*
X1412249Y568621D1*
X1409397Y567162D1*
X1385023Y603684D2*
X1386449Y599406D1*
X1389301Y597947D1*
X1392186D1*
X1395038Y599406D1*
X1396497Y602258D1*
X1397923Y607995D1*
X1399349Y612306D1*
X1402234Y615158D1*
X1405086Y616584D1*
X1409397D1*
X1412249Y615158D1*
X1413708Y613732D1*
X1415134Y609421D1*
Y603684D1*
X1413708Y599406D1*
X1412249Y597947D1*
X1409397Y596521D1*
X1405086D1*
X1402234Y597947D1*
X1399349Y600832D1*
X1397923Y605110D1*
X1396497Y610847D1*
X1395038Y613732D1*
X1392186Y615158D1*
X1389301D1*
X1386449Y613732D1*
X1385023Y609421D1*
Y603684D1*
X438951Y1036738D2*
X451851D1*
X456162Y1038197D1*
X457621Y1039623D1*
X459047Y1042475D1*
Y1045360D1*
X457621Y1048212D1*
X456162Y1049671D1*
X451851Y1051097D1*
X438951D1*
Y1020953D1*
X448999Y1036738D2*
X459047Y1020953D1*
X485522Y1051063D2*
X471196D1*
X469770Y1038164D1*
X471196Y1039589D1*
X475507Y1041049D1*
X479785D1*
X484096Y1039589D1*
X486981Y1036738D1*
X488407Y1032427D1*
Y1029575D1*
X486981Y1025264D1*
X484096Y1022379D1*
X479785Y1020953D1*
X475507D1*
X471196Y1022379D1*
X469770Y1023838D1*
X468311Y1026690D1*
X516340Y1041049D2*
X514881Y1036738D1*
X512029Y1033852D1*
X507718Y1032427D1*
X506292D1*
X501981Y1033852D1*
X499129Y1036738D1*
X497670Y1041049D1*
Y1042475D1*
X499129Y1046786D1*
X501981Y1049637D1*
X506292Y1051063D1*
X507718D1*
X512029Y1049637D1*
X514881Y1046786D1*
X516340Y1041049D1*
Y1033852D1*
X514881Y1026690D1*
X512029Y1022379D1*
X507718Y1020953D1*
X504866D1*
X500555Y1022379D1*
X499129Y1025264D1*
X451667Y580488D2*
X464567D1*
X468878Y581947D1*
X470337Y583373D1*
X471763Y586225D1*
Y589110D1*
X470337Y591962D1*
X468878Y593421D1*
X464567Y594847D1*
X451667D1*
Y564703D1*
X461715Y580488D2*
X471763Y564703D1*
X498237Y590536D2*
X496812Y593388D1*
X492500Y594814D1*
X489649D1*
X485338Y593388D1*
X482452Y589077D1*
X481027Y581914D1*
Y574751D1*
X482452Y569014D1*
X485338Y566129D1*
X489649Y564703D1*
X491075D1*
X495352Y566129D1*
X498237Y569014D1*
X499663Y573325D1*
Y574751D1*
X498237Y579062D1*
X495352Y581914D1*
X491075Y583340D1*
X489649D1*
X485338Y581914D1*
X482452Y579062D1*
X481027Y574751D1*
X508927Y589077D2*
X511812Y590536D1*
X516123Y594814D1*
Y564703D1*
X668100Y538515D2*
Y551415D1*
X666641Y555726D1*
X665215Y557185D1*
X662363Y558611D1*
X659478D1*
X656626Y557185D1*
X655167Y555726D1*
X653741Y551415D1*
Y538515D1*
X683885D1*
X668100Y548563D2*
X683885Y558611D1*
X658052Y585085D2*
X655200Y583660D1*
X653774Y579348D1*
Y576497D1*
X655200Y572186D1*
X659511Y569300D1*
X666674Y567875D1*
X673837D1*
X679574Y569300D1*
X682459Y572186D1*
X683885Y576497D1*
Y577922D1*
X682459Y582200D1*
X679574Y585085D1*
X675263Y586511D1*
X673837D1*
X669526Y585085D1*
X666674Y582200D1*
X665248Y577923D1*
Y576497D1*
X666674Y572186D1*
X669526Y569300D1*
X673837Y567875D1*
X660937Y597234D2*
X659511D1*
X656626Y598660D1*
X655200Y600086D1*
X653774Y602971D1*
Y608708D1*
X655200Y611560D1*
X656626Y612986D1*
X659511Y614445D1*
X662363D1*
X665248Y612986D1*
X669526Y610134D1*
X683885Y595775D1*
Y615871D1*
X1324705Y4628900D2*
D103*
X1349554D1*
Y4669092D1*
X1324705D1*
X1349554Y4648046D2*
X1334255D1*
X1312353Y4628900D2*
Y4669092D1*
X1286605Y4628900D2*
Y4669092D1*
X1300002Y4628900D2*
X1273207D1*
X1260856D2*
Y4669092D1*
X1234061Y4628900D2*
Y4669092D1*
X1260856Y4648046D2*
X1234061D1*
X1196861Y4628900D2*
X1221710D1*
Y4669092D1*
X1196861D1*
X1221710Y4648046D2*
X1206411D1*
X1184509D2*
X1167309D1*
X1161561Y4646100D1*
X1159616Y4644199D1*
X1157715Y4640396D1*
Y4636550D1*
X1159616Y4632747D1*
X1161561Y4630802D1*
X1167309Y4628900D1*
X1184509D1*
Y4669092D1*
X1171112Y4648046D2*
X1157715Y4669092D1*
X1106482Y4628900D2*
X1096888Y4669092D1*
X1087337Y4628900D1*
X1077786Y4669092D1*
X1068192Y4628900D1*
X1025199Y4669092D2*
X1040542Y4628900D1*
X1055840Y4669092D1*
X1050092Y4655695D2*
X1030947D1*
X1012847Y4628900D2*
X997549Y4648046D1*
Y4669092D1*
X982250Y4628900D2*
X997549Y4648046D1*
M02*
