G04 DipTrace 3.2.0.1*
G04 microburst_fixed_heatsink.GBS*
%MOIN*%
G04 #@! TF.FileFunction,Soldermask,Bot*
G04 #@! TF.Part,Single*
%AMOUTLINE15*
4,1,8,
-0.020325,0.008419,
-0.008419,0.020325,
0.008419,0.020325,
0.020325,0.008419,
0.020325,-0.008419,
0.008419,-0.020325,
-0.008419,-0.020325,
-0.020325,-0.008419,
-0.020325,0.008419,
0*%
%AMOUTLINE16*
4,1,8,
0.034184,-0.014159,
0.014159,-0.034184,
-0.014159,-0.034184,
-0.034184,-0.014159,
-0.034184,0.014159,
-0.014159,0.034184,
0.014159,0.034184,
0.034184,0.014159,
0.034184,-0.014159,
0*%
%AMOUTLINE19*
4,1,8,
-0.02197,-0.0091,
-0.0091,-0.02197,
0.0091,-0.02197,
0.02197,-0.0091,
0.02197,0.0091,
0.0091,0.02197,
-0.0091,0.02197,
-0.02197,0.0091,
-0.02197,-0.0091,
0*%
%ADD40C,0.047559*%
%ADD43O,0.06X0.074*%
%ADD44O,0.07X0.1*%
%ADD45C,0.055433*%
%ADD46C,0.074*%
%ADD61O,0.110362X0.070992*%
%ADD63O,0.063512X0.073*%
%ADD79C,0.073*%
%ADD81O,0.093X0.083*%
%ADD121OUTLINE15*%
%ADD122OUTLINE16*%
%ADD125OUTLINE19*%
%FSLAX26Y26*%
G04*
G70*
G90*
G75*
G01*
G04 BotMask*
%LPD*%
D81*
X592360Y1487979D3*
Y1812979D3*
D79*
Y1387979D3*
D81*
X973609Y1487979D3*
Y1812979D3*
D79*
Y1387979D3*
D81*
X973610Y1286978D3*
Y961978D3*
D79*
Y1386978D3*
D81*
X592360Y1286978D3*
Y961978D3*
D79*
Y1386978D3*
D81*
X1742360Y1487979D3*
Y1812979D3*
D79*
Y1387979D3*
D81*
X1361109Y1487979D3*
Y1812979D3*
D79*
Y1387979D3*
D81*
X1742360Y774478D3*
Y449478D3*
D79*
Y874478D3*
D81*
X1361109Y774478D3*
Y449478D3*
D79*
Y874478D3*
D81*
Y1286978D3*
Y961978D3*
D79*
Y1386978D3*
D81*
X1742360Y1286978D3*
Y961978D3*
D79*
Y1386978D3*
D81*
X973610Y774479D3*
Y449479D3*
D79*
Y874479D3*
D81*
X592360Y774479D3*
Y449479D3*
D79*
Y874479D3*
D121*
X1367360Y3362480D3*
Y3312480D3*
X1317360Y3362480D3*
Y3312480D3*
X1267360Y3362480D3*
Y3312480D3*
X1217360Y3362480D3*
Y3312480D3*
X1167360Y3362480D3*
Y3312480D3*
D122*
X954860Y4437478D3*
Y4537478D3*
X1054860Y4437478D3*
Y4537478D3*
X1154860Y4437478D3*
Y4537478D3*
X1254860Y4437478D3*
Y4537478D3*
X1354860Y4437478D3*
Y4537478D3*
D40*
X1004860Y3340003D3*
Y3418743D3*
Y3497483D3*
Y3596252D3*
Y3674992D3*
Y3753732D3*
Y3852503D3*
Y3931243D3*
Y4009983D3*
Y4115003D3*
Y4193743D3*
Y4272483D3*
D43*
X543934Y2399387D3*
X642360D3*
X740785D3*
D44*
X457320Y2674978D3*
X827399D3*
D43*
X543934Y3311388D3*
X642360D3*
X740785D3*
D44*
X457320Y3586979D3*
X827399D3*
D43*
X543934Y4224387D3*
X642360D3*
X740785D3*
D44*
X457320Y4499978D3*
X827399D3*
D43*
X1593934Y3093138D3*
X1692360D3*
X1790785D3*
D44*
X1507320Y3368728D3*
X1877399D3*
D43*
X1593934Y3661888D3*
X1692360D3*
X1790785D3*
D44*
X1507320Y3937479D3*
X1877399D3*
D43*
X1593934Y4224387D3*
X1692360D3*
X1790785D3*
D44*
X1507320Y4499978D3*
X1877399D3*
D125*
X451759Y2159378D3*
X845459D3*
D45*
X550184Y2257803D3*
X648609D3*
X747034D3*
X550184Y2060953D3*
X648609D3*
X747034D3*
D46*
X933360Y2237479D3*
Y1981479D3*
X1111360Y2237479D3*
Y1981479D3*
X1223609Y2237479D3*
Y1981479D3*
X1401609Y2237479D3*
Y1981479D3*
D63*
X1784352Y2049979D3*
X1686360Y2049703D3*
X1588360Y2049979D3*
D61*
X1499352Y2344979D3*
X1873367D3*
D63*
X1784352Y1949979D3*
X1686360Y1949703D3*
X1588367Y1949979D3*
M02*
