M48
INCH
T01C0.015
T02C0.024
T03C0.0276
T04C0.0354
T05C0.0394
T06C0.04
T07C0.0433
T08C0.05
T09C0.052
%
T01
X+016107Y+021866
X+015670Y+022241
X+015357Y+022553
X+016357Y+022553
X+015857Y+023678
X+016232Y+023990
X+017107Y+023990
X+018169Y+025303
X+017924Y+025687
X+018294Y+026428
X+017419Y+026553
X+017044Y+026803
X+016607Y+026803
X+016072Y+027086
X+016049Y+026500
X+016049Y+025687
X+016549Y+025625
X+014924Y+024875
X+014236Y+025437
X+013924Y+025187
X+013611Y+025687
X+014049Y+026187
X+013049Y+026250
X+012424Y+026625
X+012486Y+027000
X+012799Y+027875
X+013174Y+027750
X+013549Y+028375
X+013611Y+028812
X+014674Y+028250
X+015305Y+027062
X+016674Y+028312
X+017486Y+028437
X+017486Y+029437
X+015674Y+029937
X+015299Y+029937
X+015361Y+032187
X+014736Y+033000
X+014049Y+032687
X+013736Y+032500
X+013174Y+032437
X+012111Y+032500
X+011111Y+032437
X+011174Y+032875
X+010361Y+032437
X+009986Y+032687
X+009611Y+031375
X+008736Y+031750
X+007858Y+032250
X+008361Y+033312
X+009299Y+034187
X+010733Y+034374
X+011361Y+034000
X+013111Y+034812
X+013424Y+034187
X+014299Y+035312
X+014049Y+036312
X+014049Y+036812
X+013424Y+037312
X+014049Y+038687
X+014236Y+040745
X+015924Y+041250
X+015299Y+035750
X+016049Y+035125
X+017236Y+033375
X+017736Y+032625
X+016861Y+032375
X+018611Y+034937
X+018483Y+036315
X+012361Y+030687
X+011799Y+030250
X+010736Y+030000
X+009486Y+029684
X+009486Y+029125
X+008924Y+029250
X+008924Y+028812
X+009361Y+028503
X+008549Y+027625
X+008236Y+027937
X+007674Y+028700
X+007361Y+029125
X+006611Y+027750
X+005799Y+028500
X+005236Y+030187
X+005299Y+031875
X+007361Y+030812
X+009049Y+030062
X+010861Y+028625
X+011174Y+028437
X+011549Y+028375
X+011799Y+028062
X+011174Y+027750
X+011424Y+026500
X+010924Y+025750
X+010424Y+026625
X+010049Y+026625
X+009424Y+026562
X+010174Y+024937
X+010424Y+024625
X+011736Y+024812
X+012361Y+024437
X+013607Y+022866
X+014732Y+021616
X+014732Y+020294
X+012857Y+020428
X+013045Y+019366
X+012736Y+018000
X+012299Y+017187
X+011861Y+017187
X+012361Y+016625
X+011299Y+016250
X+011486Y+015375
X+011986Y+015312
X+012986Y+015687
X+014732Y+015687
X+015361Y+015437
X+015861Y+015562
X+015464Y+016205
X+015549Y+016875
X+015611Y+017875
X+016982Y+018866
X+017986Y+017625
X+018236Y+017312
X+017549Y+017187
X+017924Y+015937
X+018049Y+014250
X+018424Y+012937
X+018357Y+011929
X+017607Y+010929
X+018361Y+010625
X+018674Y+009812
X+018299Y+008812
X+018674Y+008062
X+016674Y+008937
X+016174Y+009000
X+015549Y+008625
X+014982Y+010304
X+014486Y+010937
X+014844Y+011625
X+016424Y+011607
X+015236Y+013437
X+014799Y+013812
X+014607Y+014241
X+015670Y+014116
X+011982Y+014116
X+011486Y+013437
X+010986Y+013437
X+012295Y+012304
X+012236Y+011625
X+011361Y+011562
X+010482Y+010937
X+011266Y+010084
X+012361Y+010562
X+012361Y+007687
X+012486Y+007000
X+013049Y+006125
X+013799Y+005625
X+013861Y+006875
X+014611Y+007000
X+015049Y+006062
X+016424Y+006107
X+016236Y+006937
X+017507Y+005437
X+018611Y+004750
X+015049Y+004625
X+012611Y+004375
X+012174Y+004937
X+011174Y+005000
X+010674Y+004437
X+008617Y+005415
X+008611Y+006125
X+008986Y+006625
X+008361Y+006937
X+007861Y+006937
X+007236Y+006937
X+006736Y+007187
X+006920Y+005437
X+005174Y+006125
X+005111Y+007875
X+004608Y+010242
X+004799Y+011000
X+004733Y+012492
X+007122Y+011607
X+007799Y+010937
X+008986Y+010875
X+009045Y+008992
X+008361Y+009000
X+010861Y+007000
X+007674Y+013437
X+007174Y+013437
X+007295Y+013991
X+007674Y+014375
X+008174Y+014312
X+009358Y+015429
X+009549Y+017000
X+008174Y+016875
X+007623Y+016187
X+007233Y+016866
X+005733Y+017116
X+005361Y+019000
X+005858Y+019553
X+004549Y+019437
X+004299Y+021062
X+004424Y+022062
X+004611Y+023187
X+005049Y+024625
X+004674Y+025000
X+009049Y+024312
X+007920Y+020116
X+011236Y+017875
X+018169Y+019991
X+018799Y+020500
X+017732Y+021303
X+018674Y+018187
X+012424Y+028625
X+006986Y+034187
X+006671Y+036374
X+005049Y+036624
X+004924Y+037375
X+004924Y+037750
X+007733Y+038124
X+008420Y+039372
X+005361Y+043375
X+006924Y+045250
X+007549Y+046437
X+004736Y+034500
X+004486Y+034062
T02
X+013674Y+033625
X+013674Y+033125
X+013174Y+033125
X+013174Y+033625
X+012674Y+033625
X+012674Y+033125
X+012174Y+033125
X+012174Y+033625
X+011674Y+033625
X+011674Y+033125
T03
X+010049Y+033400
X+010049Y+034187
X+010049Y+034975
X+010049Y+035963
X+010049Y+036750
X+010049Y+037537
X+010049Y+038525
X+010049Y+039312
X+010049Y+040100
X+010049Y+041150
X+010049Y+041937
X+010049Y+042725
X+008455Y+021594
X+004518Y+021594
T04
X+005502Y+022578
X+006486Y+022578
X+007470Y+022578
X+007470Y+020610
X+006486Y+020610
X+005502Y+020610
T05
X+005439Y+023994
X+006424Y+023994
X+007408Y+023994
X+007408Y+033114
X+006424Y+033114
X+005439Y+033114
X+005439Y+042244
X+006424Y+042244
X+007408Y+042244
X+015939Y+042244
X+016924Y+042244
X+017908Y+042244
X+017908Y+036619
X+016924Y+036619
X+015939Y+036619
X+015939Y+030931
X+016924Y+030931
X+017908Y+030931
X+017844Y+020500
X+016864Y+020497
X+015884Y+020500
X+015884Y+019500
X+016864Y+019497
X+017844Y+019500
T06
X+005924Y+013880
X+005924Y+013870
X+009736Y+013870
X+009736Y+013880
X+013611Y+013880
X+013611Y+013870
X+017424Y+013870
X+017424Y+013880
X+017424Y+008745
X+013611Y+008745
X+009736Y+008745
X+005924Y+008745
X+009334Y+019815
X+011114Y+019815
X+012236Y+019815
X+014016Y+019815
X+014016Y+022375
X+012236Y+022375
X+011114Y+022375
X+009334Y+022375
X+009549Y+044375
X+009549Y+045375
X+010549Y+045375
X+011549Y+045375
X+011549Y+044375
X+010549Y+044375
X+012549Y+044375
X+012549Y+045375
X+013549Y+045375
X+013549Y+044375
T07
X+015141Y+023450G85X+014846Y+023450
X+018881Y+023450G85X+018586Y+023450
T08
X+004573Y+026600G85X+004573Y+026900
X+008274Y+026600G85X+008274Y+026900
X+008274Y+035720G85X+008274Y+036020
X+004573Y+035720G85X+004573Y+036020
X+004573Y+044850G85X+004573Y+045150
X+008274Y+044850G85X+008274Y+045150
X+015073Y+044850G85X+015073Y+045150
X+018774Y+044850G85X+018774Y+045150
X+018774Y+039225G85X+018774Y+039525
X+015073Y+039225G85X+015073Y+039525
X+015073Y+033537G85X+015073Y+033837
X+018774Y+033537G85X+018774Y+033837
T09
X+005924Y+014880
X+005924Y+012870
X+005924Y+009620
X+005924Y+007745
X+005924Y+004495
X+009736Y+004495
X+009736Y+007745
X+009736Y+009620
X+009736Y+012870
X+009736Y+014880
X+009736Y+018130
X+005924Y+018130
X+013611Y+018130
X+013611Y+014880
X+013611Y+012870
X+013611Y+009620
X+013611Y+007745
X+013611Y+004495
X+017424Y+004495
X+017424Y+007745
X+017424Y+009620
X+017424Y+012870
X+017424Y+014880
X+017424Y+018130
T00
M30
